<?xml version="1.0" standalone="no"?>
<!DOCTYPE svg PUBLIC "-//W3C//DTD SVG 1.1//EN" "http://www.w3.org/Graphics/SVG/1.1/DTD/svg11.dtd" >
<!--
2013-9-30: Created.
-->
<svg>
<metadata>
Created by iconfont
</metadata>
<defs>

<font id="iconfont" horiz-adv-x="1024" >
  <font-face
    font-family="iconfont"
    font-weight="500"
    font-stretch="normal"
    units-per-em="1024"
    ascent="896"
    descent="-128"
  />
    <missing-glyph />
    
    <glyph glyph-name="icon" unicode="&#58944;" d="M525.795703 864.511845c-254.462482 0-460.743616-206.281133-460.743616-460.743616 0-254.461459 206.281133-460.743616 460.743616-460.743616 254.461459 0 460.742593 206.282157 460.742593 460.743616C986.538295 658.230712 780.257162 864.511845 525.795703 864.511845zM525.795703 33.101140999999984c-204.715475 0-370.670158 165.953659-370.670158 370.668111S321.081251 774.438387 525.795703 774.438387c204.714452 0 370.669134-165.954683 370.669134-370.669134S730.510154 33.101140999999984 525.795703 33.101140999999984zM525.795703 864.511845c-254.462482 0-460.743616-206.281133-460.743616-460.743616 0-254.461459 206.281133-460.743616 460.743616-460.743616 254.461459 0 460.742593 206.282157 460.742593 460.743616C986.538295 658.230712 780.257162 864.511845 525.795703 864.511845zM525.795703 33.101140999999984c-204.715475 0-370.670158 165.953659-370.670158 370.668111S321.081251 774.438387 525.795703 774.438387c204.714452 0 370.669134-165.954683 370.669134-370.669134S730.510154 33.101140999999984 525.795703 33.101140999999984zM516.751722 249.09345099999996c-18.799158-18.799158-47.934732-20.142759-65.076134-3.00238l-3.910053 3.911076c-17.140379 17.140379-15.797801 46.276976 3.003404 65.076134l243.364727 243.36575c18.800181 18.799158 47.937802 20.144806 65.078181 3.003404l3.911076-3.910053c17.140379-17.141402 15.795754-46.276976-3.004427-65.076134L516.751722 249.09345099999996zM522.874163 309.852256c13.72049-11.314697-45.64969-83.308381-59.371202-71.993684L285.893844 384.327458c-13.719466 11.313673-12.340049 35.647895 3.083222 54.349839l3.518127 4.267187c15.422248 18.700921 39.048341 24.690332 52.767807 13.376659L522.874163 309.852256z"  horiz-adv-x="1024" />

    
    <glyph glyph-name="luyin" unicode="&#58970;" d="M896 431.616C896 253.632 763.584 106.88 592 83.584L592-32 752-32C778.496-32 800-53.504 800-80 800-106.496 778.496-128 752-128L544-128 336-128C309.504-128 288-106.496 288-80 288-53.504 309.504-32 336-32L496-32 496 83.584C324.416 106.88 192 253.632 192 431.616 192 431.744 192 431.808 192 431.872 192 431.936 192 431.936 192 432 192 458.496 213.504 480 240 480 266.496 480 288 458.496 288 432L288 432C288.064 290.624 402.624 176.064 544 176 685.376 176.064 799.936 290.624 800 432L800 432C800 458.496 821.504 480 848 480 874.496 480 896 458.496 896 432 896 431.936 896 431.936 896 431.872 896 431.808 896 431.744 896 431.616ZM544 256 544 256C437.952 256 352 341.952 352 448L352 704C352 810.048 437.952 896 544 896L544 896C650.048 896 736 810.048 736 704L736 448C736 341.952 650.048 256 544 256Z"  horiz-adv-x="1024" />

    
    <glyph glyph-name="kefu" unicode="&#58916;" d="M906.03889 412.250414l-54.074569 0c-21.25714 180.562379-165.81756 321.212746-338.750167 321.212746-172.693154 0-317.506331-140.79977-338.768587-321.212746l-54.085826 0c-63.306838 0-114.838492-54.599526-114.838492-121.778554l0-133.307122c0-67.11763 51.531654-121.778554 114.838492-121.778554l83.138512 0c8.42795 0 16.48444 3.346211 22.434965 9.29469 5.948479 5.949502 9.295714 14.068414 9.295714 22.434965l-0.031722 90.048899 0.007163 53.574173c0.00921 0.320295 0.024559 0.64059 0.024559 0.962931 0 1.796926 0 155.183362 0.030699 159.647023 2.479471 164.665317 127.171378 298.652937 277.954523 298.652937 151.403269 0 276.095175-134.545322 277.955546-299.956629 0.027629-4.155646 0.030699-129.704061 0.030699-154.2235l0-148.705833c0-17.538445 14.19121-31.729655 31.730679-31.729655l83.107813 0c63.33856 0 114.869191 54.660924 114.869191 121.778554L1020.90808 290.470837C1020.90808 357.650889 969.37745 412.250414 906.03889 412.250414zM120.360763 98.846518c-28.323069 0-51.377134 26.15366-51.377134 58.317197L68.983629 290.470837c0 32.163537 23.054065 58.316174 51.377134 58.316174l51.40681 0-0.029676-58.316174 0.029676-191.625342L120.360763 98.845495zM957.447746 157.163715c0-32.16456-23.054065-58.317197-51.407833-58.317197l-51.376111 0L854.663802 348.788034l51.376111 0c28.353768 0 51.407833-26.15366 51.407833-58.316174L957.447746 157.163715z"  horiz-adv-x="1024" />

    
    <glyph glyph-name="iconset0336" unicode="&#59115;" d="M896 725.333333 128 725.333333c-46.933333 0-85.333333-38.4-85.333333-85.333333l0-512c0-46.933333 38.4-85.333333 85.333333-85.333333l768 0c46.933333 0 85.333333 38.4 85.333333 85.333333L981.333333 640C981.333333 686.933333 942.933333 725.333333 896 725.333333zM128 682.666667l768 0c4.266667 0 10.666667 0 14.933333-2.133333L541.866667 311.466667C533.333333 302.933333 522.666667 298.666667 512 298.666667c-10.666667 0-21.333333 4.266667-29.866667 12.8L113.066667 680.533333C117.333333 682.666667 123.733333 682.666667 128 682.666667zM85.333333 128 85.333333 640c0 2.133333 0 4.266667 0 6.4L349.866667 384 85.333333 121.6C85.333333 123.733333 85.333333 125.866667 85.333333 128zM896 85.333333 128 85.333333c-4.266667 0-10.666667 0-14.933333 2.133333l266.666667 266.666667 72.533333-72.533333C469.333333 264.533333 490.666667 256 512 256c21.333333 0 42.666667 8.533333 59.733333 23.466667l72.533333 72.533333 266.666667-266.666667C906.666667 85.333333 900.266667 85.333333 896 85.333333zM938.666667 128c0-2.133333 0-4.266667 0-6.4L674.133333 384 938.666667 646.4c0-2.133333 0-4.266667 0-6.4L938.666667 128z"  horiz-adv-x="1024" />

    
    <glyph glyph-name="75bianji" unicode="&#58959;" d="M816.762587 447.370283c-0.375553-0.376577-2.031263 0.674359-3.701299 2.339278L579.471183 683.30376c-1.670036 1.664919-2.714831 3.324722-2.343371 3.701299l52.626591 52.622498c0.376577 0.376577 2.036379-0.668219 3.701299-2.339278L867.050923 503.699196c1.664919-1.670036 2.714831-3.325745 2.339278-3.701299L816.762587 447.370283 816.762587 447.370283zM816.762587 447.370283M931.972539 695.027779 823.67195 803.328367c-27.267017 27.265994-66.552765 33.935903-96.001471 18.822694-6.191003-3.174296-11.95324-7.290033-17.070794-12.406564l-32.269961-32.270984c-2.334161-2.334161-4.439102-4.813632-6.368034-7.392364 0.37146-0.48914 0.830925-1.020236 1.362021-1.553379L897.270179 544.583348c0.493234-0.493234 0.981351-0.918929 1.440815-1.27504 2.582825 1.928932 5.068436 4.03899 7.401574 6.377244l32.270984 32.269961c5.116531 5.116531 9.232269 10.883885 12.411681 17.074887C965.908442 628.475014 959.234439 667.767925 931.972539 695.027779L931.972539 695.027779zM931.972539 695.027779M397.547807 29.605527c-1.460258-5.259794 378.662179 375.505279 378.662179 375.505279 2.696412 2.695389 4.594645 5.164626 4.242627 5.517667l-49.423643 49.424666c-0.352017 0.350994-2.822278-1.549286-5.517667-4.243651L352.77509 82.564693c-0.145309-0.151449-8.470929-4.995781-8.612145-5.14109 0 0-143.467529-41.679261-147.080823-41.909505-3.004427-0.193405-18.252713 17.070794-18.252713 17.070794s-14.283308 12.700253-14.283308 15.771195 45.566802 156.617014 45.566802 156.617014l370.94952 373.239679c2.695389 2.695389 4.614088 5.146207 4.282536 5.478781l-46.225811 46.225811c-0.326435 0.327458-2.783393-1.587148-5.478781-4.281513L156.081313 268.067594c-0.346901-0.346901-5.273097-5.336542-5.834892-7.278777L70.856279-6.963343c-3.520173-5.551436-5.565762-12.133342-5.565762-19.194154 0-19.829628 16.074094-35.908838 35.908838-35.908838 6.719028 0 13.002129 1.851161 18.378579 5.063319 0.630357-0.11154 1.839905 0.033769 3.192715 0.424672 0 0 256.611425 75.181283 260.708743 78.507028M687.649997 503.27964l-61.518099 61.519122c-0.440022 0.438998-2.954285-1.363044-5.614881-4.024663L247.6928 187.949882c-2.143826-2.143826-3.710508-4.174066-4.013407-5.116531l50.448996-11.294231c2.554172-0.9967 4.498454-3.213181 5.107321-5.938246 0.078795-0.356111 0.13303-0.717338 0.166799-1.087774l6.703679-43.506886c1.060145 0.547469 2.833535 1.969864 4.697999 3.833305L683.627381 497.664759C686.287977 500.324332 688.090019 502.839619 687.649997 503.27964L687.649997 503.27964zM687.649997 503.27964"  horiz-adv-x="1024" />

    
    <glyph glyph-name="iconset0137-copy" unicode="&#58902;" d="M750.781 760.313c-38.813 0-74.25-14.344-98.719-38.813l-459.844-464.063-56.531-253.125 253.125 56.531 460.688 467.438c24.469 24.469 38.813 59.906 38.813 98.719 0 73.406-59.906 133.313-137.531 133.313zM357.594 95.437l-119.813-27.844v42.188h-42.188l27.844 119.813h133.312v-134.156zM388.812 116.531v129.937c0 10.969-6.75 17.719-17.719 17.719h-126.563l368.719 369.563 147.656-144.281-372.094-372.938zM825.031 552.75l-38.813-38.813-144.281 144.281 38.813 38.813c0 0 27.844 32.062 74.25 32.062 56.531 0 102.094-45.563 102.094-102.094-4.219-32.063-14.344-56.531-32.062-74.25z"  horiz-adv-x="1024" />

    
    <glyph glyph-name="iconfontxiaoxi1" unicode="&#58955;" d="M855.603709 315.855994 855.603709 423.173185c0 151.450341-109.069091 278.669814-256.588913 314.5193l0 1.811252c0 50.92074-38.22151 92.197842-85.370343 92.197842-47.145763 0-85.368296-41.277102-85.368296-92.197842l0-2.102894c-146.913001-36.242436-255.395738-163.18357-255.395738-314.225611l0-88.310302-0.074701 0c1.765203-109.005646-85.570911-130.383536-85.570911-189.224666 0-58.840106 47.696302-81.796958 106.539478-81.796958l149.013849 0c2.081405-70.88442 77.971839-127.863133 171.293271-127.863133 93.319385 0 169.20982 56.977689 171.290201 127.863133l148.627039 0c58.842153 0 106.545618 22.956851 106.545618 81.796958C940.54324 200.879356 863.263156 223.34809 855.603709 315.855994zM514.185782-20.961148c-70.879304 0-128.334877 37.293371-128.334877 83.301218 0 0.502443 0.01535 1.001817 0.029676 1.502213l256.613472 0c0.013303-0.500397 0.029676-0.99977 0.029676-1.502213C642.521682 16.333246 585.064063-20.961148 514.185782-20.961148zM898.048403 142.328845c-2.666736-27.628244-39.147602-36.425607-62.10036-36.425607l-643.935891 0c-17.5804-2.38942-62.765509 6.200212-62.098313 35.827997l0 7.522324c0.588401 26.750247 66.307172 49.552579 85.193311 144.290267l0 41.319058-0.676405 0 0 80.935334c0 145.368832 111.338784 265.62573 256.209266 285.726533l0 35.963073c0 28.412097 19.150152 51.443649 42.774199 51.443649 23.624047 0 42.772152-23.031553 42.772152-51.443649l0-35.918048c145.033187-19.960611 256.546957-140.290163 256.546957-285.772582l0-80.935334-0.25071 0 0-37.259602 0.330528 0c0.862647-68.061119 84.568071-124.622322 85.23629-145.087423L898.049426 142.328845zM850.489224 334.672548l-0.074701 0 0 88.310302c0 151.043065-108.482737 277.984199-255.395738 314.226634l0 2.102894c0 50.92074-38.22151 92.197842-85.368296 92.197842-47.148833 0-85.370343-41.277102-85.370343-92.197842l0-1.811252c-147.519822-35.848463-256.588913-163.068959-256.588913-314.5193l0-107.318214c-7.659447-92.50688-84.939531-114.976638-84.939531-170.2188 0-58.840106 47.703465-81.796958 106.545618-81.796958l148.627039 0c2.081405-70.885444 77.971839-127.863133 171.290201-127.863133 93.321432 0 169.211866 56.977689 171.293271 127.863133l149.013849 0c58.842153 0 106.539478 22.956851 106.539478 81.796958C936.060135 204.289012 848.724021 225.667925 850.489224 334.672548zM509.110183-21.152507c-70.879304 0-128.336924 37.293371-128.336924 83.301218 0 0.502443 0.01535 1.001817 0.029676 1.502213l256.613472 0c0.013303-0.500397 0.029676-0.99977 0.029676-1.502213C637.446084 16.141888 579.99051-21.152507 509.110183-21.152507zM893.381104 141.541923c0.667196-29.627784-44.517913-38.217417-62.098313-35.827997L187.346899 105.713926c-22.952758 0-59.432601 8.79634-62.10036 36.425607l0 10.188037c0.667196 20.465101 84.373643 77.026304 85.23629 145.087423l0.331551 0 0 37.259602-0.251733 0 0 80.935334c0 145.482419 111.512746 265.811971 256.546957 285.772582l0 35.918048c0 28.412097 19.148106 51.443649 42.772152 51.443649 23.624047 0 42.774199-23.031553 42.774199-51.443649l0-35.963073c144.870482-20.100804 256.209266-140.357701 256.209266-285.726533l0-80.935334-0.676405 0 0-41.319058c18.886139-94.737688 84.603887-117.537973 85.193311-144.290267L893.382127 141.541923z"  horiz-adv-x="1024" />

    
    <glyph glyph-name="weigouxuanv2" unicode="&#59024;" d="M921.6 844.8c28.2368 0 51.2-22.9632 51.2-51.2l0-819.2c0-28.2368-22.9632-51.2-51.2-51.2L102.4-76.8c-28.2368 0-51.2 22.9632-51.2 51.2L51.2 793.6c0 28.2368 22.9632 51.2 51.2 51.2L921.6 844.8M921.6 896 102.4 896C45.8496 896 0 850.1504 0 793.6l0-819.2c0-56.5504 45.8496-102.4 102.4-102.4l819.2 0c56.5504 0 102.4 45.8496 102.4 102.4L1024 793.6C1024 850.1504 978.1504 896 921.6 896L921.6 896z"  horiz-adv-x="1024" />

    
    <glyph glyph-name="tucenggouxuan" unicode="&#59042;" d="M896.969659 879.423964 119.702341 879.423964c-61.317329 0-111.038333-49.665189-111.038333-111.038333l0-777.265288c0-61.265573 49.721004-111.039348 111.038333-111.039348l777.266302 0c61.314284 0 111.036304 49.773775 111.036304 111.039348L1008.004947 768.385631C1008.005962 829.758775 958.283943 879.423964 896.969659 879.423964zM877.124894 555.203844 443.975232 122.111012c-11.680554-11.736369-26.883542-17.734958-42.168729-18.026211-15.069031-1.231989-30.562257 3.90096-42.085514 15.423203L133.583021 345.593201c-20.767234 20.820005-20.767234 54.548493 0 75.368498 20.820005 20.81899 54.59416 20.81899 75.414165 0L389.301916 240.614345l401.179853 401.337149c23.964925 23.853295 62.727926 23.853295 86.643125 0C901.092864 617.873925 901.092864 579.165725 877.124894 555.203844z"  horiz-adv-x="1024" />

    
    <glyph glyph-name="shijian1" unicode="&#59055;" d="M659.481368 174.162414c5.883611-5.278621 13.655941-8.493042 22.18216-8.493042 18.353756 0 33.232668 14.878912 33.232668 33.232668 0 10.778092-5.135118 20.3544-13.089725 26.425484l0.041172 0.050566-100.971741 81.940045-63.914666 52.272559-0.47188-0.021186-0.026582 0.021186 0 0.110325 0 13.297185 0 0.110325L536.462774 610.184391l-0.038574 0c-0.79626 17.645237-15.350792 31.709301-33.194094 31.709301-17.842103 0-32.398034-14.064065-33.194294-31.709301l-0.038574 0 0-253.649825 0-6.809983 0-7.646216c0 0 0.047967-0.090339 0.128913-0.248631 0.422713-3.619746 1.3267-7.090593 2.674587-10.335393 1.954075-4.701812 4.796148-8.942337 8.336148-12.491531l4.501148-3.652923 0.001399-0.001399 2.080389-1.717436c-0.131511 0.079746-0.267219 0.154096-0.394732 0.237839L659.481368 174.162414zM508.948829 829.652392c-247.633305 0-448.379399-200.745894-448.379399-448.378 0-247.633305 200.745894-448.379399 448.379399-448.379399 77.687528 0 150.747793 19.777391 214.4538 54.544219 2.214698 0.959749 4.317673 2.133553 6.284939 3.498828 6.75562 4.681826 11.897334 11.596737 14.404434 19.700243 1.099255 3.553191 1.694851 7.333828 1.694851 11.256568 0 20.672184-16.462239 37.429423-36.77007 37.429423-6.736832 0-13.045755-1.854343-18.477272-5.07396-1.079468-0.639367-2.12436-1.331897-3.129278-2.077791-53.191136-28.021801-113.93795-43.927017-178.460004-43.927017-209.456788 0-379.253666 167.408097-379.253666 373.915285S299.49204 756.076276 508.948829 756.076276c209.455589 0 379.255065-167.406698 379.255065-373.915285 0-61.906028-15.271046-120.292042-42.285331-171.714977-1.296121-1.771999-2.429952-3.67291-3.395098-5.674753-2.310434-4.801345-3.614349-10.202483-3.614349-15.91441 0-19.95567 15.842859-36.133302 35.385009-36.133302 8.43588 0 16.176432 3.018753 22.25671 8.048943 3.321948 2.749136 6.144034 6.102862 8.312164 9.892693 0.39753 0.744495 0.789665 1.491389 1.183198 2.238682 32.737004 62.25699 51.279433 133.143729 51.279433 208.368126C957.325429 628.906497 756.580934 829.652392 508.948829 829.652392z"  horiz-adv-x="1024" />

    
    <glyph glyph-name="zuohua" unicode="&#58976;" d="M244.905102 347.343045c0.640598-0.647433 1.298773-1.260688 1.967689-1.862226 0.602513-0.664035 1.215768-1.32221 1.863202-1.962808l457.001475-457.007725c19.284336-19.287071 50.550391-19.284336 69.831798 0 19.284336 19.28336 19.284336 50.547461 0 69.833751L349.658072 382.258357l429.438194 429.43878c19.28336 19.287266 19.28336 50.550391 0 69.837657-19.287266 19.286289-50.550391 19.286289-69.834727 0L244.905102 417.175428C225.617835 397.894022 225.617835 366.629334 244.905102 347.343045L244.905102 347.343045z"  horiz-adv-x="1024" />

    
    <glyph glyph-name="yinliang" unicode="&#58905;" d="M932.293568 79.406152C911.105077 100.255353 911.105077 128.054295 932.293568 148.9035 1066.487338 280.948463 1066.487338 489.44051 932.293568 621.485472 911.105077 642.334676 911.105077 670.133616 932.293568 690.982821 953.482058 711.832025 981.733376 711.832025 1002.921866 690.982821 1087.675828 607.586002 1137.115637 503.339979 1137.115637 392.144221 1137.115637 280.948463 1087.675828 169.752705 1002.921866 93.305621 995.859035 86.355885 981.733376 79.406152 967.607717 79.406152 953.482058 65.506679 939.356395 72.456416 932.293568 79.406152L932.293568 79.406152ZM791.036966 155.853236C776.911307 155.853236 762.785644 162.802969 755.722816 169.752705 734.534326 190.60191 734.534326 218.400848 755.722816 239.250053 840.476774 322.646873 840.476774 447.7421 755.722816 531.138918 734.534326 551.988123 734.534326 579.787063 755.722816 600.636267 776.911307 621.485472 805.162625 621.485472 826.351115 600.636267 953.482058 482.490774 953.482058 294.847932 826.351115 176.702437 812.225456 162.802969 805.162625 155.853236 791.036966 155.853236L791.036966 155.853236 791.036966 155.853236ZM529.712253 871.675928C593.277724 920.324072 642.717533 892.525133 642.717533 816.078049L642.717533-52.638811C642.717533-129.085895 593.277724-149.9351 536.775085-101.286958L282.513202 107.20509 141.256601 107.20509C63.565471 107.20509 0 169.752705 0 246.199789L0 531.138918C0 607.586002 63.565471 670.133616 141.256601 670.133616L275.450372 670.133616 529.712253 871.675928 529.712253 871.675928Z"  horiz-adv-x="1138" />

    
    <glyph glyph-name="shunxu" unicode="&#58911;" d="M389.621202 893.911912c-30.594699 0-50.991166-20.396466-50.991165-50.991166v-698.57897H195.854773c-20.396466 0-35.693816-25.495583-20.396466-45.892049l219.262012-219.262012c15.29735-15.29735 45.892049-5.099117 45.892049 20.396466V842.920746c0 30.594699-20.396466 50.991166-50.991166 50.991166zM843.442577 669.550783L593.585865 888.812795c-20.396466 15.29735-50.991166 5.099117-50.991166-20.396466V-74.920236c0-30.594699 25.495583-50.991166 56.090283-50.991166 30.594699 0 56.090282 20.396466 56.090282 50.991166V623.658734H817.946994c30.594699 0 40.792933 30.594699 25.495583 45.892049z"  horiz-adv-x="1024" />

    
    <glyph glyph-name="dingdan" unicode="&#58939;" d="M866.72896 760.89344H721.3568v-48.66048h139.29472c1.82272-1.82272 4.864-4.25984 6.08256-6.08256v-720.20992H193.97632c-1.82784 1.21856-3.65056 3.65568-5.4784 5.4784V707.36896c1.21856 1.82272 3.04128 3.64544 4.86912 4.864h140.51328v48.66048H188.49792c-20.0704 0-48.66048-27.37664-48.66048-48.66048v-726.29248c0-20.0704 27.9808-48.66048 48.66048-48.66048h678.23104c18.86208 0 48.6656 9.12384 48.6656 48.66048V712.23296c-0.60416 19.46624-29.80352 48.66048-48.6656 48.66048zM672.69632 687.8976h-120.44288v96.7168h-49.26976v-96.7168H382.5408v-48.66048h290.75968v48.66048h-0.60416zM382.5408 833.28h290.75968v-48.66048H382.5408V833.28zM261.49376 228.03968h532.85888v-48.66048H261.49376v48.66048z m0 145.3824h532.85888v-48.6656H261.49376v48.6656z m0 145.37728h532.85888v-48.66048H261.49376v48.66048z"  horiz-adv-x="1024" />

    
    <glyph glyph-name="mimakejian" unicode="&#58942;" d="M512 704c-202.83 0-375.58-128.75-441-309a32.27 32.27 0 0 1 0-22c65.41-180.23 238.16-309 441-309s375.58 128.75 441 309a32.27 32.27 0 0 1 0 22c-65.42 180.25-238.17 309-441 309z m0-576c-171.06 0-317.35 106.06-376.71 256C194.65 533.94 340.94 640 512 640s317.35-106.06 376.71-256C829.35 234.06 683.06 128 512 128zM512 544a160 160 0 1 1 160-160 160 160 0 0 1-160 160z m0-256a96 96 0 1 0 96 96 96 96 0 0 0-96-96z"  horiz-adv-x="1024" />

    
    <glyph glyph-name="maikefeng" unicode="&#59163;" d="M511.592802 177.398151c125.925838 0 229.048613 103.122776 229.048614 229.048613v254.498459c0 125.925838-103.122776 229.048613-229.048614 229.048613-126.027637 0-229.048613-103.122776-229.048613-229.048613v-254.498459c0-126.027637 103.020976-229.048613 229.048613-229.048613z m-178.148921 483.547072c0 98.236405 79.912516 178.148921 178.148921 178.148922s178.148921-79.912516 178.148922-178.148922v-254.498459c0-98.236405-79.912516-178.148921-178.148922-178.148921s-178.148921 79.912516-178.148921 178.148921v254.498459zM893.340491 406.446764c0 14.048315-11.401531 25.449846-25.449846 25.449846s-25.449846-11.401531-25.449846-25.449846c0-182.424495-148.423501-330.847997-330.847997-330.847997s-330.847997 148.423501-330.847996 330.847997c0 14.048315-11.401531 25.449846-25.449846 25.449846s-25.449846-11.401531-25.449846-25.449846c0-201.359181 158.094443-367.190377 356.297843-380.424297v-103.122775h-127.24923c-14.048315 0-25.449846-11.50333-25.449846-25.449846 0-14.048315 11.401531-25.449846 25.449846-25.449846h305.398151c14.048315 0 25.449846 11.401531 25.449846 25.449846 0 13.946516-11.401531 25.449846-25.449846 25.449846H541.318222V26.124267c196.167412 15.371707 352.022269 180.388508 352.022269 380.322497z"  horiz-adv-x="1024" />

    
    <glyph glyph-name="ting" unicode="&#58921;" d="M307.2 552.96c-15.36 12.8-40.96 12.8-53.76-2.56-15.36-15.36-12.8-35.84 2.56-48.64 35.84-30.72 56.32-71.68 56.32-115.2 0-43.52-20.48-87.04-58.88-117.76-7.68-7.68-12.8-15.36-12.8-25.6 0-7.68 2.56-17.92 10.24-23.04 15.36-15.36 38.4-15.36 53.76-2.56 53.76 43.52 81.92 104.96 81.92 168.96 5.12 61.44-25.6 122.88-79.36 166.4z m148.48 115.2c-15.36 12.8-40.96 12.8-56.32 0-15.36-12.8-15.36-35.84 0-48.64 69.12-61.44 107.52-145.92 107.52-232.96 0-89.6-38.4-171.52-107.52-232.96-7.68-7.68-10.24-15.36-10.24-25.6s2.56-17.92 10.24-25.6c15.36-12.8 40.96-12.8 56.32 0 84.48 76.8 130.56 176.64 130.56 284.16 0 104.96-46.08 204.8-130.56 281.6z m145.92 115.2c-15.36 12.8-38.4 15.36-56.32 0-15.36-12.8-15.36-35.84 0-48.64 99.84-94.72 156.16-220.16 156.16-350.72s-56.32-256-156.16-350.72c-7.68-7.68-10.24-15.36-10.24-23.04 0-10.24 5.12-17.92 12.8-25.6 15.36-12.8 40.96-12.8 56.32 0 115.2 107.52 179.2 248.32 179.2 399.36-2.56 148.48-66.56 291.84-181.76 399.36z m0 0"  horiz-adv-x="1024" />

    
    <glyph glyph-name="bangding" unicode="&#58919;" d="M875.32 746.301c-27.217 27.18-63.372 42.142-101.831 42.142h-0.105c-31.462-0.027-61.359-10.016-86.457-28.887l-1.16-0.87-161.647-161.88-0.14-0.14c-27.672-28.254-42.905-64.094-42.89-100.94 0.027-20.042 4.086-39.436 12.063-57.64a0.262 0.262 0 0 1 0.012-0.025l0.009-0.022a141.288 141.288 0 0 1 2.372-5.152l36.82 17.882a98.08 98.08 0 0 0-1.686 3.664l-18.8-8.19 18.78 8.237c-5.712 13.022-8.617 26.917-8.636 41.283-0.01 26.017 11.047 51.654 31.136 72.196l159.48 159.706c17.729 12.97 38.715 19.827 60.78 19.846h0.075c27.53 0 53.419-10.714 72.904-30.173 19.503-19.477 30.253-45.38 30.272-72.944 0.02-22.075-6.81-43.067-19.761-60.8L708.683 435.162l-0.867-1.155c-19.7-26.249-49.78-41.321-82.528-41.35h-0.073c-14.315 0-28.162 2.872-41.161 8.536l-16.352-37.524c18.187-7.926 37.535-11.944 57.515-11.944h0.102c22.722 0.02 45.358 5.47 65.464 15.76 18.984 9.718 35.85 23.79 48.865 40.757l148.308 148.516 0.867 1.153c18.855 25.117 28.806 55.035 28.778 86.513-0.026 38.494-15.042 74.674-42.28 101.877zM254.521-19.475c-38.46-0.001-74.616 14.961-101.833 42.141-27.241 27.204-42.256 63.383-42.28 101.876-0.027 36.83 15.202 72.67 42.883 100.917l0.135 0.137 161.659 161.888 1.157 0.871c25.088 18.871 54.982 28.86 86.45 28.888h0.102c20 0 39.357-4.029 57.544-11.975L443.95 367.76c-12.987 5.674-26.832 8.55-41.153 8.55h-0.073c-22.067-0.019-43.048-6.876-60.766-19.842L182.463 196.746c-20.09-20.53-31.142-46.16-31.124-72.177 0.018-27.56 10.768-53.462 30.272-72.939 19.486-19.459 45.376-30.172 72.906-30.172h0.075c32.762 0.03 62.842 15.1 82.525 41.345l0.87 1.159L486.22 212.391c12.947 17.75 19.778 38.745 19.769 60.814-0.02 14.372-2.919 28.247-8.612 41.216l37.481 16.453c7.976-18.17 12.034-37.56 12.063-57.633 0.012-31.482-9.937-61.39-28.773-86.518l-0.871-1.16-148.323-148.518c-13.008-16.967-29.873-31.041-48.862-40.76-20.105-10.29-42.745-15.74-65.468-15.76h-0.104zM610.72 510.308l28.963-28.922-222.397-222.712-28.963 28.922L610.72 510.308z"  horiz-adv-x="1024" />

    
    <glyph glyph-name="shijian" unicode="&#59009;" d="M512.172151 896C229.245465 896 0 666.724596 0 384.037424s229.275404-511.962576 512.172151-511.962576 512.172151 229.155647 512.172151 511.917667S794.889262 895.955091 512.172151 895.955091z m206.746057-601.660814H475.795863c-1.871208 0-2.904115 1.496967-4.775324 1.706542-0.673635 0-1.017937-0.853271-1.871208-0.853271-5.987866 0.164666-10.478766 4.775323-15.703179 7.335136-4.4909 2.395147-9.565617 2.904115-12.978701 6.152533-2.724479 2.724479-2.904115 7.005804-4.954959 10.478766-3.59272 6.152533-8.712346 11.601491-8.712346 18.951597 0 0.853271 1.017937 1.36224 1.017937 2.215511s-1.017937 1.706542-1.017937 2.724479V675.751305c0 26.286733 19.116263 47.633477 42.513852 47.633477s42.513851-21.346744 42.513851-47.633477v-294.153936h207.090359c27.140004 0 49.160383-19.460566 49.160383-43.531789s-22.020379-43.726394-49.160383-43.726394z"  horiz-adv-x="1024" />

    
    <glyph glyph-name="yuyue" unicode="&#59214;" d="M823.652174 664.691654c3.582209 10.746627 6.652674 21.493253 6.652674 33.775113v32.751624c0 54.244878-46.056972 99.278361-102.86057 99.278361H609.231384c-10.746627 1.535232-41.451274 27.634183-62.944527 53.221389-6.652674 7.676162-16.375812 11.770115-28.145927 12.281859-10.746627-0.511744-20.981509-5.117441-26.610695-13.817091-17.3993-24.051974-44.009995-49.63918-52.197901-51.686157H317.537231c-56.803598 0-102.86057-44.521739-102.860569-99.278361 0-18.422789 15.352324-32.751624 33.775112-32.751624 18.422789 0 33.775112 14.84058 33.775113 32.751624s15.352324 32.751624 33.775112 32.751624h123.330335c29.169415 0 58.850575 24.051974 80.855572 47.592204 24.051974-23.028486 56.291854-47.592204 86.996502-47.592204h118.724637c18.422789 0 33.775112-14.84058 33.775113-32.751624v-32.751624c0-13.817091-8.69965-26.098951-21.493253-30.704648H154.290855C97.487256 667.762119 51.430285 623.752124 51.430285 568.995502v-597.717141c0-54.244878 46.056972-99.278361 102.86057-99.278361h715.41829c56.291854 0 102.86057 44.521739 102.86057 99.278361V565.925037c-0.511744 39.916042-25.075462 74.202899-60.385807 89.555223-12.281859 5.629185-74.202899 8.69965-88.531734 9.211394z m46.056971-725.653173H154.290855c-18.422789 0-33.775112 14.84058-33.775113 32.751624V563.878061c0 18.422789 15.352324 35.310345 33.775113 35.310345h715.41829c18.934533 0 33.775112-14.84058 33.775113-32.751624v-594.646677c0-17.911044-15.352324-32.751624-33.775113-32.751624zM698.274863 404.725637l-249.731135-243.590205L338.006997 270.648676c-13.305347 13.305347-34.798601 13.305347-48.103949 0.511744-13.817091-12.793603-13.817091-33.775112-0.511744-46.568716l134.588706-133.565217c2.046977-2.046977 5.117441-3.070465 7.164418-4.605697 1.023488-0.511744 2.046977-1.535232 3.582209-2.558721 4.605697-1.535232 8.69965-2.558721 13.305347-2.558721 4.605697 0 8.69965 1.023488 12.793603 2.558721 1.023488 0.511744 2.046977 1.535232 3.582209 2.046976 2.558721 1.535232 5.629185 2.558721 7.676162 4.605698l273.783108 267.130434c13.305347 13.305347 13.305347 33.775112 0 46.568716-12.281859 13.817091-33.775112 13.817091-47.592203 0.511744z"  horiz-adv-x="1024" />

    
    <glyph glyph-name="suiji" unicode="&#59084;" d="M68.253 546.675h162.675c8.156 0 32.477-8.156 40.633-16.311l56.944-56.944c16.311-24.467 48.788-24.467 73.109 0 24.467 16.311 24.467 48.788 0 73.109l-56.944 56.944c-24.321 24.321-73.109 48.788-113.887 48.788H68.254c-32.477 0-48.788-24.467-48.788-48.788 0-32.331 24.467-56.798 48.788-56.798zM678.176 546.675h89.42v-65.099c0-16.311 8.156-24.467 24.467-16.311l186.996 121.897c16.311 8.156 16.311 24.467 0 32.477L792.063 741.536c-16.311 8.156-24.467 0-24.467-16.311v-89.275h-89.42c-81.265 0-97.575-40.633-154.519-97.575L336.661 270.406c-32.477-32.477-130.052-65.099-178.841-65.099H68.4c-32.477 0-48.788-24.321-48.788-48.788 0-32.477 24.321-48.788 48.788-48.788h89.42c81.265 0 195.152 40.633 252.095 97.575l186.996 268.26c40.633 40.633 32.477 73.109 81.265 73.109zM979.059 172.683L792.063 302.735c-16.311 8.156-24.467 0-24.467-16.311v-81.265h-89.42c-8.156 0-32.477 8.156-40.633 16.311l-56.944 56.944c-16.311 24.467-48.788 24.467-73.109 0-24.321-16.311-24.321-48.788 0-73.109l56.944-56.944c24.467-24.321 73.109-48.788 113.887-48.788h89.42v-65.099c0-16.311 8.156-24.321 24.467-16.311L979.204 140.06c16.02 8.156 16.02 24.467-0.146 32.622z"  horiz-adv-x="1024" />

    
    <glyph glyph-name="yanzhengma" unicode="&#58881;" d="M520.533333-116.62222199999997c-147.911111 0-426.666667 221.866667-426.666666 432.355555v398.222223c0 5.688889 2.844444 8.533333 5.688889 14.222222 2.844444 2.844444 8.533333 5.688889 14.222222 5.688889h22.755555c65.422222 2.844444 130.844444 17.066667 193.422223 39.822222 56.888889 22.755556 113.777778 51.2 164.977777 85.333333l14.222223 8.533334h11.377777c2.844444 0 8.533333 0 11.377778-2.844445l14.222222-8.533333C597.333333 819.2 654.222222 790.755556 711.111111 768c62.577778-22.755556 128-36.977778 193.422222-39.822222h22.755556c5.688889 0 8.533333-2.844444 14.222222-5.688889s5.688889-8.533333 5.688889-14.222222v-398.222223c0-207.644444-278.755556-426.666667-426.666667-426.666666zM881.777778 665.6c-65.422222 5.688889-130.844444 19.911111-193.422222 42.666667-56.888889 22.755556-113.777778 51.2-167.822223 82.488889-54.044444-34.133333-108.088889-62.577778-167.822222-82.488889C290.133333 685.511111 227.555556 668.444444 159.288889 665.6v-349.866667c0-164.977778 241.777778-364.088889 361.244444-364.088889 85.333333 14.222222 164.977778 54.044444 224.711111 116.622223 76.8 59.733333 125.155556 150.755556 136.533334 247.466666V665.6zM492.088889 221.866667c-8.533333-8.533333-17.066667-11.377778-28.444445-11.377778s-19.911111 2.844444-28.444444 11.377778l-116.622222 116.622222c-14.222222 14.222222-14.222222 39.822222 0 54.044444s39.822222 14.222222 54.044444 0l88.177778-91.022222 224.711111 224.711111c14.222222 14.222222 39.822222 14.222222 54.044445 0s14.222222-39.822222 0-54.044444l-247.466667-250.311111z"  horiz-adv-x="1024" />

    
    <glyph glyph-name="bofang1" unicode="&#58888;" d="M512 896C230.4 896 0 665.6 0 384s230.4-512 512-512 512 230.4 512 512S793.6 896 512 896z m0 0M445.44 212.48c-30.72-17.92-56.32-2.56-56.32 30.72v281.6c0 35.84 25.6 48.64 56.32 30.72l238.08-140.8c30.72-17.92 30.72-46.08 0-64l-238.08-138.24z m0 0"  horiz-adv-x="1024" />

    
    <glyph glyph-name="yijianfankui" unicode="&#59202;" d="M832.768 554.794667c0 18.901333 15.872 34.261333 35.413333 34.261333 19.882667 0 36.096-15.658667 36.096-34.858667v-550.144c0-60.970667-51.498667-110.72-114.602666-110.72H157.226667C94.165333-106.66666699999996 42.666667-56.917332999999985 42.666667 4.053332999999952V692.992c0 60.970667 51.498667 110.72 114.56 110.72h493.738666c20.650667 0 37.333333-16.128 37.333334-36.096 0-21.632-18.090667-39.296-40.661334-39.296H149.12c-19.370667 0-35.114667-15.36-35.114667-33.92v-691.882667c0-18.773333 15.914667-33.962667 35.114667-33.962666h648.533333c19.370667 0 35.114667 15.36 35.114667 33.962666V554.794667z m-388.693333-101.034667H215.552a28.885333 28.885333 0 0 0-29.226667 28.288V495.36c0 15.488 13.184 28.245333 29.226667 28.245333h228.522667c16.042667 0 29.226667-12.757333 29.226666-28.245333v-13.354667c0.170667-15.530667-13.013333-28.288-29.226666-28.288z m214.357333-210.048H215.552a28.885333 28.885333 0 0 0-29.226667 28.245333v13.397334c0 15.488 13.184 28.245333 29.226667 28.245333h442.88c16.042667 0 29.226667-12.757333 29.226667-28.245333v-13.397334c0-15.488-13.184-28.245333-29.226667-28.245333z m314.325333 573.184l-366.293333-355.882667a30.250667 30.250667 0 0 0-41.472-0.170666l-9.813333 9.514666a27.818667 27.818667 0 0 0-0.213334 40.106667L921.429333 866.304a30.250667 30.250667 0 0 0 41.472 0.170667l9.813334-9.514667c11.477333-11.093333 11.477333-29.013333 0-40.106667z"  horiz-adv-x="1024" />

    
    <glyph glyph-name="zongjie" unicode="&#58883;" d="M380.1640625 9.31640625H185.40722656a62.27050781 62.27050781 0 0 0-62.2265625 62.18261719V717.3984375a62.25292969 62.25292969 0 0 0 62.2265625 62.21777344H804.06054688a62.27050781 62.27050781 0 0 0 62.19140625-62.19140625V548.6484375a22.49121094 22.49121094 0 1 1 44.99121093 0V717.3984375A107.296875 107.296875 0 0 1 804.06054688 824.625H185.40722656a107.296875 107.296875 0 0 1-107.2265625-107.2265625v-645.92578125a107.296875 107.296875 0 0 1 107.2265625-107.13867188H380.1640625a22.49121094 22.49121094 0 1 1 0 44.99121094zM727.55175781 637.34765625a22.49121094 22.49121094 0 0 1-22.49121093 22.49121094H278.50097656a22.49121094 22.49121094 0 1 1 0-44.99121094h426.55957031a22.49121094 22.49121094 0 0 1 22.49121094 22.5zM278.50097656 500.1328125a22.49121094 22.49121094 0 1 1 0-44.99121094h299.83886719a22.49121094 22.49121094 0 1 1 0 44.99121094zM474.11035156 306.32519531a22.49121094 22.49121094 0 0 1-22.49121093 22.49121094h-173.14453126a22.49121094 22.49121094 0 1 1 1e-8-44.99121094h173.14453124a22.49121094 22.49121094 0 0 1 22.49121094 22.49121094zM912.95703125 402.36328125c-19.84570313 19.83691406-45.64160156 31.49121094-72.65917969 32.80957031-27.85253906 1.35351563-53.56054688-8.33203125-72.5625-27.24609375L497.796875 137.953125l-32.51953125-116.54296875a54.6328125 54.6328125 0 0 1 52.47949219-68.66015625 52.734375 52.734375 0 0 1 14.18554687 1.94238281l116.54296875 32.51953125 269.9296875 269.94726563c38.57519531 38.50488281 36.08789063 103.64941406-5.45800781 145.20410156zM625.0625 27.369140620000053L519.91015625-1.9951171899999736a9.50976563 9.50976563 0 0 0-11.30273438 11.30273438L537.9453125 114.46875l216.16699219 216.2109375 87.1171875-87.1171875z m261.60644531 261.58886719l-13.57910156-13.57910156-87.12597656 87.1171875 13.57910156 13.57910156C809.41308594 385.9453125 823.1328125 390.97265625 838.07421875 390.24316406c15.8203125-0.7734375 31.06054688-7.76953125 43.06640625-19.6875 24.00292969-24.05566406 26.49902344-60.61816406 5.52832031-81.59765625z"  horiz-adv-x="1024" />

    
    <glyph glyph-name="zhongwenban" unicode="&#58918;" d="M733.44 0h-2.56a26.24 26.24 0 0 0-23.04 23.04v70.4H626.56a38.4 38.4 0 0 0-38.4 38.4v121.6a38.4 38.4 0 0 0 38.4 38.4h83.2V376.32a26.24 26.24 0 0 0 28.8 23.04 26.24 26.24 0 0 0 23.04-23.04v-84.48h83.2a38.4 38.4 0 0 0 38.4-38.4v-123.52a42.24 42.24 0 0 0-40.32-36.48h-83.2v-70.4a26.24 26.24 0 0 0-26.24-23.04z m26.24 146.56h71.04v97.28h-71.04z m-121.6 0h71.04v97.28H638.08z m-0.64 97.28z m-400-161.92a97.28 97.28 0 0 0-97.28 96.64V670.08A97.28 97.28 0 0 0 237.44 768H729.6a97.28 97.28 0 0 0 97.28-96.64v-258.56h-55.04V670.08a43.52 43.52 0 0 1-42.88 42.88H238.08a43.52 43.52 0 0 1-42.88-42.88v-490.24a43.52 43.52 0 0 1 42.88-42.88h319.36v-55.04h-320z m103.68 121.6h-56.32l171.52 433.28h47.36l124.8-328.96h-51.84l-16 40.96H398.72z m74.24 190.72h127.36l-63.36 163.2c-17.28-45.44-49.92-126.72-64-163.2z"  horiz-adv-x="1024" />

    
    <glyph glyph-name="yuedu" unicode="&#58925;" d="M140.53181 833.487238c-14.628571 0-24.380952-9.752381-24.380953-24.380952v-853.333334c0-14.628571 9.752381-24.380952 24.380953-24.380952h741.180952c14.628571 0 24.380952 9.752381 24.380952 24.380952v853.333334c0 14.628571-9.752381 24.380952-24.380952 24.380952h-741.180952z m0 53.638095h741.180952c39.009524 0 78.019048-34.133333 78.019048-78.019047v-853.333334c0-43.885714-34.133333-78.019048-78.019048-78.019047h-741.180952c-43.885714 0-78.019048 34.133333-78.019048 78.019047v853.333334c-4.87619 43.885714 34.133333 78.019048 78.019048 78.019047zM247.808 618.934857h531.504762v-53.638095h-531.504762zM247.808 462.896762h531.504762v-53.638095h-531.504762zM247.808 301.982476h268.190476v-53.638095h-268.190476z"  horiz-adv-x="1024" />

    
    <glyph glyph-name="qun" unicode="&#59303;" d="M363.2 342.4c6.4 6.4 9.6 14.4 9.6 22.4 0 17.6-14.4 32-32 32-80 0-144 68.8-144 155.2 0 84.8 65.6 155.2 144 155.2 17.6 0 32 14.4 32 32s-14.4 32-32 32c-115.2 0-208-97.6-208-217.6 0-70.4 33.6-137.6 89.6-179.2-123.2-51.2-206.4-177.6-206.4-318.4 0-17.6 14.4-32 32-32s32 14.4 32 32c0 153.6 116.8 280 262.4 280 6.4-1.6 14.4 0 20.8 6.4zM609.6 819.2c-139.2 0-251.2-113.6-251.2-251.2 0-86.4 44.8-166.4 116.8-212.8-158.4-57.6-264-204.8-264-374.4 0-17.6 14.4-32 32-32s32 14.4 32 32c0 184 148.8 334.4 332.8 336h8C752 320 862.4 432 862.4 568c-1.6 137.6-113.6 251.2-252.8 251.2z m188.8-251.2c0-104-84.8-188.8-188.8-188.8S420.8 464 420.8 568s84.8 188.8 188.8 188.8 188.8-84.8 188.8-188.8zM891.2 262.4c-11.2 11.2-32 11.2-44.8 0-12.8-12.8-12.8-32 0-44.8 62.4-64 97.6-147.2 97.6-236.8 0-17.6 14.4-32 32-32s32 14.4 32 32c0 105.6-41.6 206.4-116.8 281.6z"  horiz-adv-x="1024" />

    
    <glyph glyph-name="tubiaozhizuomoban-" unicode="&#58929;" d="M669.4912 207.9744A211.2512 211.2512 0 0 0 880.64 419.2256v98.5088a107.9296 107.9296 0 0 1-107.8272 108.032H273.3056a107.9296 107.9296 0 0 1-108.032-108.032v-365.8752a107.9296 107.9296 0 0 1 108.032-107.9296H747.52a210.8416 210.8416 0 0 0-78.0288 164.0448zM646.656 625.7664l41.6768 71.68a29.696 29.696 0 0 1-9.1136 38.5024 27.9552 27.9552 0 0 1-37.9904-11.3664L583.68 625.7664H462.2336l-57.2416 99.1232a28.0576 28.0576 0 0 1-37.9904 11.3664 29.4912 29.4912 0 0 1-9.1136-38.6048l41.5744-71.68M458.0352 453.0176l202.3424-118.0672a17.7152 17.7152 0 0 0 0-30.72L458.0352 186.2656a17.7152 17.7152 0 0 0-26.624 15.2576V437.76a17.7152 17.7152 0 0 0 26.624 15.2576zM880.64 151.8592V419.2256a211.2512 211.2512 0 0 1-133.12-375.296h25.1904A107.9296 107.9296 0 0 1 880.64 151.8592zM880.64 151.8592V419.2256a211.2512 211.2512 0 0 1-133.12-375.296h25.1904A107.9296 107.9296 0 0 1 880.64 151.8592z"  horiz-adv-x="1024" />

    
    <glyph glyph-name="cihuiben" unicode="&#58945;" d="M672.256 645.6320000000001c-17.408 0-31.232 14.336-31.232 31.232V777.728c0 17.408 14.336 31.232 31.232 31.232 17.408 0 31.232-14.336 31.232-31.232v-100.352c0-17.408-14.336-31.744-31.232-31.744M351.744 645.6320000000001c-17.408 0-31.232 14.336-31.232 31.232V777.728c0 17.408 14.336 31.232 31.232 31.232 17.408 0 31.232-14.336 31.232-31.232v-100.352c0.512-17.408-13.824-31.744-31.232-31.744M734.208 368.12800000000004H289.792c-13.824 0-25.088 11.264-25.088 25.088s11.264 25.088 25.088 25.088h443.904c13.824 0 25.088-11.264 25.088-25.088 0.512-13.824-10.752-25.088-24.576-25.088m0-189.952H289.792c-13.824 0-25.088 11.264-25.088 25.088s11.264 25.088 25.088 25.088h443.904c13.824 0 25.088-11.264 25.088-25.088 0.512-13.824-10.752-25.088-24.576-25.088M791.552 716.8h-56.32v-39.424c0-34.816-28.16-62.976-62.976-62.976S609.28 642.56 609.28 677.376V716.8H414.72v-39.424C414.72 642.56 386.56 614.4 351.744 614.4c-34.816 0-62.976 28.16-62.976 62.976V716.8h-56.32c-61.952 0-112.64-51.2-112.64-113.152v-531.456c0-61.952 50.688-113.152 113.152-113.152h558.592c61.952 0 113.152 50.688 113.152 113.152V603.648c-0.512 61.952-51.2 113.152-113.152 113.152"  horiz-adv-x="1024" />

    
    <glyph glyph-name="Username" unicode="&#58909;" d="M752.6 495.7h-26.7V602.3c0 128.2-88.8 228.6-214.9 228.6-126.6 0-212.9-102.5-212.9-228.6v-106.6h-26.7c-59 0-106.9-50.1-106.9-111.7v-335.2c0-61.6 48-111.7 106.9-111.7h481.2c59 0 106.9 50.1 106.9 111.7V384c0.1 61.6-47.9 111.7-106.9 111.7z m-401 106.6C351.6 697.5 414 775 511 775c96.1 0 161.4-75.9 161.4-172.7v-106.6H351.6V602.3z m401-609.3H271.4c-29.5 0-53.4 25-53.4 55.8V384c0 30.8 24 55.9 53.4 55.9h481.2c29.5 0 53.5-25 53.5-55.9v-335.2c0-30.8-24-55.8-53.5-55.8zM512 328.1c-29.5 0-53.5-25-53.5-55.9 0-20.7 10.7-38.7 26.7-48.3v-91.3c0-15.4 11.9-27.9 26.7-27.9 14.8 0 26.8 12.5 26.8 27.9v91.3c16 9.7 26.7 27.7 26.7 48.3 0.1 30.9-23.9 55.9-53.4 55.9z"  horiz-adv-x="1024" />

    
    <glyph glyph-name="kanjian" unicode="&#58908;" d="M512.01024 99.60448c-59.40224 0-118.9376 14.77632-176.96768 43.90912-46.36672 23.28064-91.8528 55.72096-135.2192 96.42496-58.32704 54.7328-97.4336 110.32064-111.54432 131.68128a25.6 25.6 0 0 0-1.74592 25.13408c10.0608 21.07392 39.11168 75.96544 91.50976 130.37568 39.48032 41.00096 84.26496 73.67168 133.10976 97.11104 61.07136 29.30176 128.65024 44.15488 200.8576 44.15488 71.83872 0 139.10528-14.70464 199.93088-43.71456 48.73216-23.23968 93.44-55.65952 132.8896-96.35328 52.82816-54.50752 82.37568-110.16192 92.62592-131.55328a25.5744 25.5744 0 0 0-1.72544-25.16992c-14.10048-21.3504-53.1968-76.91776-111.52384-131.6608-43.38176-40.70912-88.87296-73.14944-135.21408-96.42496-58.04032-29.13792-117.5808-43.91424-176.98304-43.91424z m-372.72576 288.06656c17.21856-24.59648 50.0992-67.72736 95.57504-110.40256 39.76704-37.3248 81.19808-66.93376 123.15136-87.99744 50.8416-25.5232 102.65088-38.47168 153.99936-38.47168 51.3536 0 103.16288 12.94336 154.00448 38.47168 41.9328 21.05344 83.36896 50.66752 123.15136 87.99744 45.46048 42.67008 78.33088 85.77536 95.54432 110.3616-12.6976 23.88992-37.53472 64.7168-76.64128 105.0624-35.2 36.30592-74.9568 65.17248-118.1696 85.78048-53.88288 25.69728-113.73568 38.72256-177.88928 38.72256-64.4864 0-124.61056-13.1584-178.70848-39.1168-43.32032-20.79232-83.1488-49.87904-118.37952-86.46656-38.69184-40.17152-63.13472-80.384-75.63776-103.94112zM512.01024 219.44832c-92.05248 0-166.94272 74.89536-166.94272 166.94784s74.89024 166.94784 166.94272 166.94784 166.94784-74.89536 166.94784-166.94784-74.89536-166.94784-166.94784-166.94784z m0 282.7008c-63.8208 0-115.74272-51.92704-115.74272-115.74784s51.92704-115.74784 115.74272-115.74784c63.82592 0 115.74784 51.92704 115.74784 115.74784s-51.92704 115.74784-115.74784 115.74784z"  horiz-adv-x="1024" />

    
    <glyph glyph-name="shuaxin" unicode="&#59019;" d="M966.7328 870.4h-1.536a31.6672 31.6672 0 0 1-31.6416-31.6672v-218.112C850.6624 768.9728 693.0432 870.4 512 870.4 246.0928 870.4 25.6 649.9072 25.6 384c0-265.8816 220.4928-486.4 486.4-486.4 145.152 0 279.0144 62.0544 364.8 165.0944a31.744 31.744 0 0 1-1.92 42.752l-0.8704 0.8704a31.6672 31.6672 0 0 1-46.1568-1.4336A421.5296 421.5296 0 1 0 512 805.5552c177.1008 0 323.968-105.7024 387.5072-259.3536h-258.56c-17.4848 0-31.6672-14.1824-31.6672-31.6672v-1.536c0-17.4848 14.1824-31.6672 31.6672-31.6672h325.7856c17.4848 0 31.6672 14.1824 31.6672 31.6928V838.7328C998.4 856.2176 984.2176 870.4 966.7328 870.4z"  horiz-adv-x="1024" />

    
    <glyph glyph-name="quanping" unicode="&#58949;" d="M978.944 535.3472c0-12.4928 10.0352-22.528 22.528-22.528s22.528 10.0352 22.528 22.528v-0.2048V805.888c-1.024 73.3184-30.5152 90.112-90.112 90.112H663.1424c-12.4928 0-22.528-10.0352-22.528-22.528s10.0352-22.528 22.528-22.528H933.888c4.7104 0 8.8064-0.2048 12.6976-0.4096l-382.7712-382.976c-8.8064-8.8064-8.8064-23.1424 0-31.9488 8.8064-8.8064 23.1424-8.8064 31.9488 0L978.3296 818.3808c0.4096-3.6864 0.6144-7.9872 0.6144-12.4928v-270.5408zM45.056 232.6528c0 12.4928-10.0352 22.528-22.528 22.528s-22.528-10.0352-22.528-22.528v0.2048V-37.888c1.024-73.3184 30.5152-90.112 90.112-90.112h270.5408c12.4928 0 22.528 10.0352 22.528 22.528s-10.0352 22.528-22.528 22.528H90.112c-4.7104 0-8.8064 0.2048-12.6976 0.4096l382.7712 382.7712c8.8064 8.8064 8.8064 23.1424 0 31.9488-8.8064 8.8064-23.1424 8.8064-31.9488 0L45.6704-50.3808c-0.4096 3.6864-0.6144 7.9872-0.6144 12.4928V232.6528z"  horiz-adv-x="1024" />

    
    <glyph glyph-name="fenxiang" unicode="&#59372;" d="M170.781352-128C76.724906-127.8976 0.110592-51.287382 0 42.771795V725.217269C0.110592 819.27235 76.718079 895.888029 170.77316 895.999986h341.225468c21.820757 0 39.574186-17.752064 39.574186-39.574186 0-21.822122-17.753429-39.575551-39.574186-39.575551H170.781352c-50.528255 0-91.637076-41.10609-91.637076-91.63298V42.844158c0-50.563754 41.107455-91.699881 91.637076-91.699882H853.155829c50.563754 0 91.699881 41.107455 91.699881 91.637076V316.533413c0 21.820757 17.750698 39.574186 39.568725 39.574186 21.822122 0 39.574186-17.753429 39.574186-39.574186v-273.752061c-0.107861-94.061908-76.718079-170.677587-170.77316-170.781352h0.006826-682.450935zM368.960848 149.02886a39.353002 39.353002 0 0 0-39.226026 35.328c-0.902485 8.486912-20.428117 209.485821 123.861673 369.205243 97.252692 107.683839 244.005543 169.39827 436.181669 183.432531l10.635947 0.775509-79.598933 92.925951c-14.180352 16.586069-12.230656 41.622186 4.349952 55.805268A39.591935 39.591935 0 0 0 850.872991 895.999986a39.542783 39.542783 0 0 0 30.090581-13.852671L1014.497266 726.316362c10.006528-11.696811 12.315307-28.296533 5.87503-42.284373-6.438912-13.983744-20.548266-23.01952-35.946496-23.01952h-6.362453c-212.489555 0-369.019558-53.785941-465.244154-159.861416-120.146601-132.42914-104.57634-306.754897-104.405673-308.499793 2.210475-21.645994-13.579605-41.127935-35.198293-43.449002-1.553749-0.172032-2.961408-0.172032-4.203861-0.172032h-0.050518zM850.821109 482.938872c-15.063722 0-28.618752 8.368128-35.374421 21.838506-6.765227 13.503146-5.339819 29.398357 3.720533 41.478826l133.53779 178.072233c7.439701 9.930069 19.296256 15.856981 31.715328 15.856981 8.611157 0 16.811349-2.734763 23.717205-7.908011 8.463701-6.340608 13.953706-15.596202 15.455573-26.066943 1.501867-10.470741-1.164629-20.899157-7.506603-29.364224L882.544628 498.769912c-7.431509-9.913685-19.266218-15.832405-31.659349-15.832405h-0.06417z"  horiz-adv-x="1024" />

    
    <glyph glyph-name="yinpin" unicode="&#59894;" d="M533.045149-128a56.268343 56.268343 0 0 0-56.103959 56.103959V839.887821a56.103959 56.103959 0 0 0 112.224357 0V-71.896041a56.268343 56.268343 0 0 0-56.10396-56.103959zM294.574554 37.517365a56.268343 56.268343 0 0 0-56.103959 56.10396V660.332137a56.103959 56.103959 0 0 0 112.224357 0V93.637763a56.268343 56.268343 0 0 0-56.103959-56.103959zM56.103959 186.218337A56.268343 56.268343 0 0 0 0 242.322297v255.286988a56.103959 56.103959 0 0 0 112.224357 0v-255.286988c2.810951-30.854712-22.438296-56.103959-56.103959-56.10396z m953.865942 0a56.268343 56.268343 0 0 0-56.10396 56.10396v255.286988a56.103959 56.103959 0 0 0 112.224357 0v-255.286988a56.284781 56.284781 0 0 0-56.120397-56.10396zM774.244504 40.328317a56.284781 56.284781 0 0 0-56.10396 56.120398V663.143089a56.103959 56.103959 0 1 0 112.224358 0V96.432276A56.284781 56.284781 0 0 0 774.244504 40.328317z m0 0"  horiz-adv-x="1066" />

    
    <glyph glyph-name="wenti" unicode="&#59078;" d="M656.96 535.36A145.6 145.6 0 0 1 512 640a154.56 154.56 0 0 1-160-160 32 32 0 0 1 64 0 91.2 91.2 0 0 0 96 96 82.56 82.56 0 0 0 83.84-59.2 96 96 0 0 0-36.16-105.28c-64-32-79.68-40.32-79.68-91.52v-96a32 32 0 0 1 64 0v106.56a431.68 431.68 0 0 0 46.4 24.96l3.2 1.92a157.44 157.44 0 0 1 64 177.92z m0 0M472 128A40 40 0 1 1 512 168 40 40 0 0 1 472 128z m0 0M512-128a535.36 535.36 0 0 0-364.8 152.96A512 512 0 0 0 0 384 524.48 524.48 0 0 0 139.84 725.76C177.28 766.4 315.52 896 512 896a523.2 523.2 0 0 0 512-512 567.04 567.04 0 0 0-81.6-272.64c2.88-14.08 11.2-51.52 37.12-150.72a64 64 0 0 0-16-60.16 64 64 0 0 0-60.16-16.96c-113.6 28.8-152.96 37.44-166.72 40.32A550.72 550.72 0 0 0 512-128z m-4.8 960c-168.96 0-288-114.24-320-149.76A460.16 460.16 0 0 1 64 384a456 456 0 0 1 128-313.28A467.2 467.2 0 0 1 512-64a477.12 477.12 0 0 1 204.48 48.96c13.44 7.04 15.36 8 202.56-39.36-47.04 174.08-46.08 175.68-36.48 190.4A509.12 509.12 0 0 1 960 384c0 260.8-236.16 445.44-448 448z m0 0"  horiz-adv-x="1024" />

    
    <glyph glyph-name="jiazai" unicode="&#58904;" d="M28.437201 351.493369c0 40.635462 32.5073 73.142762 73.142761 73.142762 48.76095 0 81.269587-32.5073 81.269587-73.142762 0-48.76095-32.5073-81.269587-81.269587-81.269587C60.9445 270.223782 28.437201 302.731082 28.437201 351.493369m97.524573 284.442884c0 56.889112 40.634125 105.651399 97.523237 105.651399 56.889112 0 105.651399-48.762287 105.651398-105.651399s-48.762287-97.523236-105.651398-97.523236-97.523236 40.634125-97.523237 97.523236m40.634125-577.013931c0 32.5073 24.381812 56.889112 56.889112 56.889112 32.508637 0 56.889112-24.380475 56.889112-56.889112s-24.380475-56.889112-56.889112-56.889111c-32.5073 0-56.889112 24.379137-56.889112 56.889111m284.445559-121.906385c0 40.635462 24.380475 65.017274 65.015937 65.017274 40.636799 0 65.017274-24.380475 65.017274-65.017274 0-40.634125-24.380475-65.015937-65.017274-65.015937-40.634125 0-65.015937 24.381812-65.015937 65.015937m316.952858 121.906385c0 24.379137 16.25365 40.635462 40.635462 40.635462 24.379137 0 40.635462-16.254987 40.635462-40.635462s-16.254987-40.635462-40.635462-40.635461c-24.381812 0-40.635462 16.25365-40.635462 40.635461m89.396412 292.571047c0 32.508637 32.5073 65.017274 73.140087 65.017274 32.508637 0 65.017274-32.5073 65.017274-65.017274 0-40.635462-32.5073-73.141424-65.017274-73.141424-40.632787 0-73.140087 32.505962-73.140087 73.141424M670.469743 635.936253c0 81.270924 65.017274 138.160036 138.160035 138.160036s138.158698-56.889112 138.158699-138.160036c0-73.141424-65.015937-138.158698-138.158699-138.158698s-138.160036 65.017274-138.160035 138.158698m-292.571047 121.905049C377.898696 830.984063 442.91597 896 516.057395 896c73.142762 0 138.158698-65.015937 138.158698-138.158698 0-73.141424-65.014599-138.158698-138.158698-138.158699-73.141424 0-138.158698 65.017274-138.158699 138.158699"  horiz-adv-x="1024" />

    
    <glyph glyph-name="close" unicode="&#58882;" d="M512 804a420 420 0 1 0-420-420 420 420 0 0 0 420 420m0 60a480 480 0 1 1 480-480 480 480 0 0 1-480 480zM702.8 234.60000000000002L554 384l149.4 149.4a30 30 0 0 1-42.6 42L512 426.6 363.8 574.2a30 30 0 0 1-42.6-42.6L468.8 384l-147.6-147.6a30 30 0 0 1 42.6-42.6L512 341.4l149.4-149.4a29.4 29.4 0 0 1 42 42z"  horiz-adv-x="1024" />

    
    <glyph glyph-name="guanbi" unicode="&#59011;" d="M578.51081 384.426719l367.585912 367.585912c18.432815 18.431791 18.432815 48.317449 0 66.74924-18.431791 18.431791-48.316425 18.431791-66.74924 0L511.573281 450.98767 144.652518 817.909457c-18.432815 18.431791-48.317449 18.431791-66.74924 0-18.432815-18.431791-18.432815-48.317449 0-66.74924l367.585912-367.585912L77.902254 15.987369c-18.430768-18.431791-18.432815-48.316425 0-66.74924 18.432815-18.431791 48.317449-18.431791 66.750264 0l367.774201 367.776247 366.920763-366.92281c18.432815-18.431791 48.317449-18.431791 66.750264 0 18.432815 18.432815 18.430768 48.317449 0 66.74924L578.51081 384.426719z"  horiz-adv-x="1024" />

    
    <glyph glyph-name="guanyuwomen" unicode="&#59069;" d="M512-128c-282.304 0-512 229.696-512 512s229.696 512 512 512 512-229.696 512-512-229.696-512-512-512zM512 827.776A444.288 444.288 0 0 1 68.224 384c0-244.608 199.04-443.776 443.776-443.776 244.608 0 443.776 199.104 443.776 443.776S756.608 827.776 512 827.776zM512 36.992a51.2 51.2 0 0 0-51.2 51.2V450.048a51.2 51.2 0 0 0 102.4 0v-361.856a51.2 51.2 0 0 0-51.2-51.2zM512 645.376m-34.432 0a34.432 34.432 0 1 1 68.864 0 34.432 34.432 0 1 1-68.864 0ZM512 645.312m-68.608 0a68.608 68.608 0 1 1 137.216 0 68.608 68.608 0 1 1-137.216 0Z"  horiz-adv-x="1024" />

    
    <glyph glyph-name="yijianfankui1" unicode="&#58964;" d="M261.6064-128c-5.39648 0-11.43296 1.38752-16.2816 4.17792-9.72288 5.59616-16.3584 15.9744-16.3584 27.20256v174.06464H156.7488c-86.38464 0-156.76416 72.81152-156.76416 160.6912V740.28544C-0.01536 826.90048 68.8896 895.91808 156.7488 895.91808h711.36768c88.12544 0 158.18752-69.02272 158.18752-155.63264v-502.14912c0-87.87968-71.53152-160.6912-158.18752-160.6912H625.50528l-348.12928-201.84064c-4.864-2.83648-10.3168-3.60448-15.7696-3.60448zM156.74368 830.16704c-52.65408 0-93.34784-38.46144-93.34784-89.87648v-502.14912c0-52.36736 42.45504-97.27488 93.34784-97.27488h104.8576c17.32608 0 30.76608-13.37344 30.76608-30.72v-152.19712l308.58752 178.99008c4.78208 2.7904 10.5472 3.92704 16.08704 3.92704h251.06944c51.15392 0 94.7712 44.90752 94.7712 97.27488V740.28544c0 51.41504-41.83552 89.87648-94.7712 89.87648H156.74368zM224.9728 478.52032c0-40.27904 32.65024-72.92928 72.9344-72.92928 40.27904 0 72.92928 32.65024 72.92928 72.92928s-32.65024 72.92928-72.92928 72.92928c-40.28416 0.00512-72.9344-32.64512-72.9344-72.92928zM443.76576 478.52032c0-40.27904 32.65024-72.92928 72.9344-72.92928s72.92928 32.65024 72.92928 72.92928-32.65024 72.92928-72.92928 72.92928-72.9344-32.64512-72.9344-72.92928zM662.55872 478.52032c0-40.27904 32.65024-72.92928 72.92928-72.92928s72.92928 32.65024 72.92928 72.92928-32.65024 72.92928-72.92928 72.92928-72.92928-32.64512-72.92928-72.92928z"  horiz-adv-x="1024" />

    
    <glyph glyph-name="kecheng-mian" unicode="&#59083;" d="M573.44 250.9952l-118.848 110.9888-118.848-110.9888V639.3216h-47.5648s-76.5952-9.2032-75.6992 55.2832c0.6912 58.56 67.9552 55.04 67.9552 55.04l562.5344 0.6912c10.1632 0 23.744 8.64 23.744 31.68S842.9696 805.76 842.9696 805.76H288.1792c-136.2048 0-142.6688-118.8608-142.6688-118.8608v-626.0608c0-106.88 110.9888-134.7328 110.9888-134.7328h435.8784c145.3184 0 166.4 110.912 166.4 110.912V639.3216h-285.44v-388.3264h0.1024z m0 0"  horiz-adv-x="1024" />

    
    <glyph glyph-name="timu-mian" unicode="&#59103;" d="M669.7472 585.3568a51.776 51.776 0 0 0-52.672 50.4192V805.4144a13.8752 13.8752 0 0 0 23.5008 9.344l216.32-207.0272a13.056 13.056 0 0 0-9.536-22.3744z m0-50.4064h182.9504a26.88 26.88 0 0 0 27.4688-26.3424v-476.928A102.912 102.912 0 0 0 775.104-69.12h-526.208a102.912 102.912 0 0 0-105.0752 100.8256V736.32A102.912 102.912 0 0 0 248.896 837.12H536.32a27.8144 27.8144 0 0 0 28.3264-27.1872V635.776a103.1168 103.1168 0 0 1 105.0752-100.8256m-368.1792-453.12h420.8768a25.2288 25.2288 0 1 1 0 50.4064H301.5808a25.2288 25.2288 0 1 1 0-50.4064z m0 151.232h279.296a25.1008 25.1008 0 1 1 0 50.1376H301.5808a25.088 25.088 0 1 1 0-50.1376z m0 150.9504"  horiz-adv-x="1024" />

    
    <glyph glyph-name="shoucang-mian" unicode="&#59106;" d="M958.4512 499.52a65.0624 65.0624 0 0 1-51.6352 44.1088L673.28 579.84 571.9296 799.424a64.4608 64.4608 0 0 1-117.3504 0L353.1264 579.84 119.616 543.6288a64.9856 64.9856 0 0 1-51.6352-44.1088A66.4576 66.4576 0 0 1 83.0336 432.64l171.072-177.92-39.6416-247.04a66.56 66.56 0 0 1 26.5472-64.384 64.1664 64.1664 0 0 1 68.6336-3.84l203.52 110.656 203.52-110.656a65.6128 65.6128 0 0 1 31.424-8.1536 64.5248 64.5248 0 0 1 37.3504 11.9808A66.304 66.304 0 0 1 811.9808 7.68l-39.6544 247.04 171.1488 177.92a66.7648 66.7648 0 0 1 14.976 66.8288z m0 0"  horiz-adv-x="1024" />

    
    <glyph glyph-name="ziyuan" unicode="&#58910;" d="M512-128a512 512 0 1 0 512 512 512 512 0 0 0-512-512z m0 965.485714a453.485714 453.485714 0 1 1 453.485714-453.485714A453.485714 453.485714 0 0 1 512 837.485714zM424.228571 158.72a73.142857 73.142857 0 0 0-36.571428 9.947429 72.118857 72.118857 0 0 0-36.571429 63.341714V535.990857a73.142857 73.142857 0 0 0 109.714286 63.341714l263.314286-151.990857a73.142857 73.142857 0 0 0 0-126.683428l-263.314286-151.990857a73.142857 73.142857 0 0 0-36.571429-9.947429z m0 392.045714a14.628571 14.628571 0 0 1-7.314285-2.048 14.628571 14.628571 0 0 1-7.314286-12.726857v-303.981714a14.628571 14.628571 0 0 1 7.314286-12.726857 14.628571 14.628571 0 0 1 14.628571 0l263.314286 151.990857a14.628571 14.628571 0 0 1 0 25.453714l-263.314286 151.990857a14.628571 14.628571 0 0 1-7.314286 2.048z"  horiz-adv-x="1024" />

    
    <glyph glyph-name="shoucang1" unicode="&#58890;" d="M752-43.200000000000045c-9.6 0-20.8 3.2-30.4 8l-208 104-209.6-104c-20.8-11.2-48-9.6-67.2 4.8-19.2 14.4-30.4 40-25.6 64l43.2 224L89.6 411.2C72 428.8 65.6 456 72 478.4c8 24 27.2 41.6 52.8 44.8l228.8 41.6 102.4 208c11.2 22.4 33.6 36.8 57.6 36.8s48-14.4 57.6-36.8l102.4-208 228.8-40c24-3.2 44.8-20.8 51.2-44.8 8-24 1.6-49.6-16-67.2L772.8 257.6l41.6-224c4.8-25.6-6.4-49.6-25.6-64-9.6-8-22.4-12.8-36.8-12.8z"  horiz-adv-x="1024" />

    
    <glyph glyph-name="shengciben" unicode="&#58887;" d="M878.514118 862.57418s25.849301-0.779936 25.849301-25.849301-14.763071-34.428595-25.849301-34.428595L266.431641 801.29351h-2.339807c-12.534683 0-70.918448-3.064034-71.586965-59.943638C191.724933 687.032914 242.197922 680.960557 264.481802 680.960557a94.70649 94.70649 0 0 1 10.473424 0.501387h51.754311v-422.502366l129.246505 120.72292 129.190794-120.611501V681.461944h310.581579v-655.313203s-22.952396-120.72292-181.056526-120.722921H240.415211S119.636581-64.268103 119.636581 52.053751V733.271966S126.656003 862.57418 274.843806 862.57418h603.670312m0 33.42582H274.843806C183.03422 896 136.349491 852.323595 113.341385 815.666612A181.947881 181.947881 0 0 1 86.210761 735.054676v-683.000925c0-112.645014 95.542136-166.349165 146.070834-179.050976a33.42582 33.42582 0 0 1 8.133616-1.002775h474.256678c94.70649 0 147.519286 39.275339 175.374137 72.42261a177.769653 177.769653 0 0 1 38.495403 75.653773 33.982917 33.982917 0 0 1 0.612806 6.295196V681.461944a33.42582 33.42582 0 0 1-33.42582 33.425821H585.146836a33.42582 33.42582 0 0 1-33.42582-33.425821v-345.400141l-72.979707 68.077254a33.42582 33.42582 0 0 1-45.626245 0l-73.091126-68.244383v345.400141a33.42582 33.42582 0 0 1-33.42582 33.42582h-51.754312a31.977368 31.977368 0 0 1-3.955389 0s-2.618356-0.278549-6.518035-0.278548c-14.9302 0-27.85485 3.565421-33.42582 9.30352-1.281323 1.281323-5.236712 5.292422-5.069582 17.492846 0 17.882814 13.03607 26.963495 38.161144 26.963495h2.395517l612.082477 0.779935c28.690496 0 59.219411 23.788042 59.219411 67.854415A58.773734 58.773734 0 0 1 879.516892 896z"  horiz-adv-x="1024" />

    
    <glyph glyph-name="shoucang" unicode="&#58889;" d="M512 861.274402a38.371785 38.371785 0 0 0 34.725598-22.513762l114.594472-248.230148A34.725598 34.725598 0 0 1 687.827276 570.736902l263.856667-40.91833a38.487537 38.487537 0 0 0 30.558526-25.523314 8.218391 8.218391 0 0 0 0-0.926016 40.513197 40.513197 0 0 0-8.97078-40.513197l-193.421579-201.234839a34.725598 34.725598 0 0 1-9.260159-29.574634l44.853897-279.425309a39.934437 39.934437 0 0 0-15.858023-38.89267 38.140281 38.140281 0 0 0-21.935003-7.118747 39.818685 39.818685 0 0 0-19.041202 5.035211l-230.057085 125.127904a34.725598 34.725598 0 0 1-33.162946 0L265.332504-88.297067h-0.347256a37.735149 37.735149 0 0 0-18.462442-4.803707 37.272142 37.272142 0 0 0-21.703499 6.713615 40.108065 40.108065 0 0 0-16.205279 39.008422l44.796021 279.251681a34.725598 34.725598 0 0 1-9.260159 29.574634L50.844063 462.682417a40.513197 40.513197 0 0 0-9.086532 40.860453 38.429661 38.429661 0 0 0 30.674278 26.275702l263.914543 40.91833a34.725598 34.725598 0 0 1 26.217826 19.79359L477.332278 838.934268a38.082405 38.082405 0 0 0 34.725598 22.340134m0 34.725598a72.865879 72.865879 0 0 1-66.325892-42.712485L331.02176 605.057367l-263.914542-40.918329A73.560391 73.560391 0 0 1 8.710337 514.018425 75.238795 75.238795 0 0 1 25.72588 438.77963L219.031707 237.544792 174.293562-41.591138a75.238795 75.238795 0 0 1 30.037642-72.750127 72.518623 72.518623 0 0 1 77.553835-4.3407l230.057085 125.070028 230.057085-125.070028a72.808003 72.808003 0 0 1 77.727463 4.3407A74.717911 74.717911 0 0 1 849.880066-41.591138l-44.796021 279.251682L998.389872 438.77963a75.586051 75.586051 0 0 1 16.899791 75.238795 73.560391 73.560391 0 0 1-58.339005 49.889109l-264.030294 40.918329L578.383768 853.287515A72.865879 72.865879 0 0 1 512 896z"  horiz-adv-x="1024" />

    
    <glyph glyph-name="cuotiben" unicode="&#58891;" d="M683.371923 587.23458a73.576897 73.576897 0 0 0-73.353089 71.450721V845.285263a32.004551 32.004551 0 0 0 54.105597 21.541525l236.341302-226.213988a30.997415 30.997415 0 0 0 0.55952-44.034234 30.773607 30.773607 0 0 0-23.108181-9.288034h-194.545149zM643.590042 840.025774v-180.892857a39.837833 39.837833 0 0 1 39.781881-38.327129h189.28566z m234.998454-219.219986zM641.184105 842.599567zM221.544009-127.944048a129.361054 129.361054 0 0 0-128.689629 126.227741V769.02267A129.472958 129.472958 0 0 0 224.677322 895.977787h313.890792a47.391355 47.391355 0 0 0 47.727067-46.160411v-190.684459A95.789846 95.789846 0 0 1 684.043347 565.860911l0.335712-18.240356V565.860911h200.923678a46.160411 46.160411 0 0 0 45.824699-45.153274v-521.640616a129.24915 129.24915 0 0 0-131.878894-127.011069H221.544009zM126.425587-0.485363v-0.671424A95.733894 95.733894 0 0 1 222.047577-94.37284H799.528302a95.62199 95.62199 0 0 1 98.027926 93.663669V520.148117a12.589203 12.589203 0 0 1-12.868963 12.029683h-200.196302A129.920574 129.920574 0 0 0 552.723973 658.741253V849.481664A13.540387 13.540387 0 0 1 539.127634 862.406579H223.78209A95.90175 95.90175 0 0 1 126.425587 768.686958zM282.028135 53.78809H741.897729a27.52839 27.52839 0 0 1 2.461888 55.05678 18.0725 18.0725 0 0 1-2.461888 0H282.028135a27.52839 27.52839 0 1 1-2.461889-55.05678zM282.028135 218.958432h305.21823a27.416486 27.416486 0 1 1 2.741649 54.77702h-307.736071a27.416486 27.416486 0 1 1-2.126176-54.77702z"  horiz-adv-x="1024" />

    
    <glyph glyph-name="wode1" unicode="&#58892;" d="M678.962511 770.594439a229.917848 229.917848 0 0 1-335.210762 0 252.83157 252.83157 0 0 1 0-346.506905 239.928251 239.928251 0 0 1 40.271211-33.888431 397.109955 397.109955 0 0 1-152.452018-92.986547c-80.358744-79.669955-121.226906-192.860987-121.502422-336.588341a31.684305 31.684305 0 0 1 31.638386-31.776143 31.638386 31.638386 0 0 1 31.684305 31.638385c0.321435 162.55426 56.756233 277.306547 167.834977 341.13435a384.573991 384.573991 0 0 0 171.829955 48.904036 30.765919 30.765919 0 0 1 9.183857 1.331659 230.514798 230.514798 0 0 1 156.630673 72.231032 252.969327 252.969327 0 0 1 0 346.506905z m-167.559462-355.598923c-95.282511 0-172.79426 81.782242-172.79426 182.345471s77.511749 182.299552 172.79426 182.299551S684.197309 697.858296 684.197309 597.524664s-77.511749-182.529148-172.79426-182.529148zM771.443946 326.876413a31.730224 31.730224 0 0 1-32.143498-54.689866c0.275516 0 26.036233-16.530942 52.393902-59.924664 26.816861-44.17435 58.822601-124.349417 58.822601-255.632645a31.730224 31.730224 0 0 1 63.414529 0c-0.137758 283.230135-136.655785 366.803229-142.487534 370.247175z"  horiz-adv-x="1024" />

    
    <glyph glyph-name="pintuan1" unicode="&#58893;" d="M850.333274 775.966996a53.633722 53.633722 0 0 0 53.633722-53.633722v-676.666548a53.679641 53.679641 0 0 0-53.633722-53.633722H173.666726a53.679641 53.679641 0 0 0-53.633722 53.633722V722.333274a53.679641 53.679641 0 0 0 53.633722 53.633722h676.666548m0 67.225829H173.666726A120.905471 120.905471 0 0 1 52.807175 722.333274v-676.666548a120.905471 120.905471 0 0 1 120.859551-120.859551h676.666548a120.859552 120.859552 0 0 1 120.859551 120.859551V722.333274a120.905471 120.905471 0 0 1-120.859551 120.859551zM512 344.004305a278.133094 278.133094 0 0 0-278.087175 278.087175 33.612915 33.612915 0 0 0 67.22583 0 210.861345 210.861345 0 1 1 421.72269 0 33.612915 33.612915 0 1 0 67.22583 0 278.133094 278.133094 0 0 0-278.087175-278.087175z"  horiz-adv-x="1024" />

    
    <glyph glyph-name="shenhebijijishibenxiezi" unicode="&#58894;" d="M337.552646 334.820448v-0.505112a7.301166 7.301166 0 0 0-0.64287-1.515336l-0.413274-0.505112a5.14296 5.14296 0 0 1-0.734708-1.147982l-47.664216-174.493274a25.668879 25.668879 0 0 1 25.209687-32.740448 23.740269 23.740269 0 0 1 6.750134 0.918386l175.549417 47.250941H496.387444a2.846996 2.846996 0 0 1 1.744933 1.056144L962.008969 637.015247a71.083049 71.083049 0 0 1 20.158565 50.51121 86.649686 86.649686 0 0 1-25.990314 60.84305l-43.852915 43.852915a87.476233 87.476233 0 0 1-61.072646 25.990313 71.266726 71.266726 0 0 1-50.511211-20.158565L337.552646 334.820448z m455.886637 375.206458l47.893811 47.939731c8.632825 8.495067 24.750493 7.484843 34.623139-2.020449l43.852915-43.852914a27.781166 27.781166 0 0 0 8.219552-19.148341 21.811659 21.811659 0 0 0-6.061346-15.245202l-48.812197-48.67444z m-382.232108-382.415785l340.124125 340.078206L831.139013 586.458117l-339.80269-339.481256z m-61.072646-140.972197l27.55157 101.022421 73.470852-73.470852zM948.692377 492.369507a28.378117 28.378117 0 0 1-28.240359-28.515875v-432.65148a44.725381 44.725381 0 0 0-44.771301-44.725381H143.635516a44.725381 44.725381 0 0 0-44.771301 44.725381V737.440717a44.81722 44.81722 0 0 0 44.771301 44.725382h471.315515a28.286278 28.286278 0 0 1 0 56.526636H138.538475A96.751928 96.751928 0 0 1 41.832466 741.986726v-715.973452a96.751928 96.751928 0 0 1 96.706009-96.706009h741.596413a96.751928 96.751928 0 0 1 96.706009 96.706009V464.129148a28.102601 28.102601 0 0 1-28.14852 28.240359z"  horiz-adv-x="1024" />

    
    <glyph glyph-name="zhibo1" unicode="&#58895;" d="M985.060448 587.284664a88.3487 88.3487 0 0 1-88.716053 88.670134H127.655605A88.3487 88.3487 0 0 1 38.939552 587.284664v-571.603229A88.3487 88.3487 0 0 1 127.655605-72.896861h768.68879a88.3487 88.3487 0 0 1 88.716053 88.716054z m-59.144035-571.603229a30.306726 30.306726 0 0 0-29.572018-29.572018H127.655605a30.306726 30.306726 0 0 0-29.572018 29.572018V587.284664a30.306726 30.306726 0 0 0 29.572018 29.572018h768.68879a30.306726 30.306726 0 0 0 29.572018-29.572018zM671.661345 348.77991l-236.530224 123.982063a56.572556 56.572556 0 0 1-53.220448-1.974529c-15.750314-9.826726-27.55157-25.62296-27.55157-41.327354v-275.974888c0-17.724843 13.775785-35.449686 29.572018-43.347803a60.613453 60.613453 0 0 1 25.62296-5.923587 45.184574 45.184574 0 0 1 27.551569 7.898116l236.530224 149.7887a50.511211 50.511211 0 0 1-1.974529 86.741524zM413.273543 173.368251V413.847534l206.958206-108.415426z m-29.388341 453.315157L261.73991 798.191928a20.893274 20.893274 0 0 0 3.903139 27.55157l15.796234 11.801255a20.847354 20.847354 0 0 0 27.551569-3.949058l123.982063-171.462601a20.801435 20.801435 0 0 0-3.949058-27.551569L413.273543 622.73435a23.969865 23.969865 0 0 0-29.388341 3.949058z m204.983677 5.923588l-13.775785 13.775784a21.076951 21.076951 0 0 0-1.974529 27.55157l137.757848 153.783677a21.12287 21.12287 0 0 0 27.551569 1.92861l13.775785-13.775785a21.076951 21.076951 0 0 0 1.974529-27.551569l-137.711928-153.737758a17.724843 17.724843 0 0 0-27.597489-1.974529z"  horiz-adv-x="1024" />

    
    <glyph glyph-name="zanting" unicode="&#58897;" d="M783.075556 394.865778L391.509333 648.305778a12.970667 12.970667 0 0 1-19.968-10.865778v-506.88a12.970667 12.970667 0 0 1 19.968-10.865778l391.566223 253.44a12.970667 12.970667 0 0 1 0 21.731556zM512-128a512 512 0 1 0 512 512 512.568889 512.568889 0 0 0-512-512zM512 861.866667a477.866667 477.866667 0 1 1 477.866667-477.866667A478.378667 478.378667 0 0 1 512 861.866667z"  horiz-adv-x="1024" />

    
    <glyph glyph-name="dianji" unicode="&#58899;" d="M818.845595 451.769951h-2.39754c-17.625871 0-32.103324-5.058546-46.027498-13.687055-12.211646 35.5679-43.234759 61.203135-83.189367 61.203136a92.344808 92.344808 0 0 1-48.425038-13.687055c-12.211646 35.5679-43.247932 61.203135-83.228887 61.203135a90.63228 90.63228 0 0 1-42.905427-10.74941v91.554411c0 49.8741-37.741494 90.276601-87.944927 90.2766s-90.895746-40.428847-90.895746-90.2766v-350.528246l-55.196112 55.011686c-35.5679 35.278088-98.378178 30.298582-128.624067 0s-50.058527-91.093345-6.784248-134.433491l253.941637-252.308147a90.4742 90.4742 0 0 1 17.125285-13.173297c46.290964-37.767841 99.379349-60.122925 211.576315-60.122925C882.156458-128 905.868391 10.293266 905.868391 180.874283V361.453831c0 49.887274-36.76667 90.316121-87.022796 90.31612z m39.230077-270.869322h-0.105387c0-144.326636-0.671838-261.358202-232.192523-261.358202-98.062019 0-156.946654 21.854499-201.551436 66.169468L183.760972 224.570107c-21.274874 21.288047-15.913342 48.464558 1.488582 65.866482s49.373515 18.007896 66.195815 1.31733c0 0 42.154549-41.917429 78.552367-78.064955 27.479496-27.347763 51.665669-51.375856 51.665669-51.375856V618.043299a42.931773 42.931773 0 0 0 43.089852 42.760521c23.804147 0 40.059995-19.153973 40.059995-42.760521v-289.812522h0.474239a24.462812 24.462812 0 0 1-0.474239-4.75556 23.949053 23.949053 0 0 1 47.898106 0 24.673584 24.673584 0 0 1-0.474239 4.75556h0.474239v118.783614c0 23.606547 17.191152 42.76052 41.008472 42.760521 0 0 42.154549 0.579625 42.154549-42.760521v-156.762228h0.421545a24.462812 24.462812 0 0 1-0.461065-4.75556 23.949053 23.949053 0 0 1 47.884932 0 24.673584 24.673584 0 0 1-0.474238 4.75556h0.474238v109.338361c0 23.606547 16.927686 42.76052 40.731833 42.76052 0 0 43.03716-2.700526 43.03716-42.76052v-137.924414h0.540105a24.423292 24.423292 0 0 1-0.474239-4.742387 23.870013 23.870013 0 0 1 23.949053-23.7778 23.329908 23.329908 0 0 1 23.329908 23.7778 28.217201 28.217201 0 0 1-0.434718 4.742387h0.434718V355.762967c0 23.606547 17.74443 42.76052 41.548577 42.76052 0 0 41.71983 1.686182 41.71983-42.76052zM652.532727 652.399257C650.741159 786.859094 540.362107 895.854949 405.875924 895.999855 269.598172 896.144761 158.665842 785.344165 158.665842 649.053239a246.946616 246.946616 0 0 1 116.359728-209.455414 27.018431 27.018431 0 1 1 27.663922 46.211924c-58.30501 33.552386-91.330464 91.264598-91.330464 163.24349 0 108.916815 90.105348 197.191075 199.694001 194.17439 103.568457-2.845432 187.245236-87.628768 188.786512-191.236745 0.421545-28.45432-2.43706-45.513739-12.975697-69.699911-0.105386-0.250293-0.223946-0.500585-0.316159-0.750878s-0.11856-0.250293-0.171253-0.382026a27.018431 27.018431 0 1 1 50.374686-19.562345 250.885431 250.885431 0 0 1 15.781609 90.803533z"  horiz-adv-x="1024" />

    
    <glyph glyph-name="zhibo-zanting" unicode="&#58900;" d="M901.494023 404.007687L149.292443 891.845398A24.708947 24.708947 0 0 1 111.026375 871.072389v-974.144778a24.708947 24.708947 0 0 1 38.266068-20.773009l752.20158 487.619047a23.506299 23.506299 0 0 1 0 40.234038z"  horiz-adv-x="1024" />

    
    <glyph glyph-name="zhibo-bofang" unicode="&#58901;" d="M306.132097-128a83.059096 83.059096 0 0 0-83.059096 83.059096V812.940904a83.059096 83.059096 0 0 0 83.059096 83.059096 83.059096 83.059096 0 0 0 83.059097-83.059096v-857.881808a83.059096 83.059096 0 0 0-83.059097-83.059096zM717.867903-128a83.059096 83.059096 0 0 0-83.059097 83.059096V812.940904a83.059096 83.059096 0 0 0 83.059097 83.059096 83.059096 83.059096 0 0 0 83.059096-83.059096v-857.881808a83.059096 83.059096 0 0 0-83.059096-83.059096z"  horiz-adv-x="1024" />

    
    <glyph glyph-name="bofang" unicode="&#58903;" d="M422.684444 131.982222a39.822222 39.822222 0 0 0-39.822222 39.822222V583.111111a39.822222 39.822222 0 0 0 39.822222 39.822222 39.822222 39.822222 0 0 0 39.822223-39.822222v-411.306667a39.822222 39.822222 0 0 0-39.822223-39.822222zM620.088889 131.982222a39.822222 39.822222 0 0 0-39.822222 39.822222V583.111111a39.822222 39.822222 0 0 0 39.822222 39.822222 39.822222 39.822222 0 0 0 39.822222-39.822222v-411.306667a39.822222 39.822222 0 0 0-39.822222-39.822222zM512-128a512 512 0 1 0 512 512 512.796444 512.796444 0 0 0-512-512zM512 861.866667a477.866667 477.866667 0 1 1 477.866667-477.866667A478.549333 478.549333 0 0 1 512 861.866667z"  horiz-adv-x="1024" />

    
    <glyph glyph-name="qianjin" unicode="&#58906;" d="M1053.879226-114.36969a77.882816 77.882816 0 0 0-76.248911 76.248911v844.184372A77.882816 77.882816 0 0 0 1053.879226 882.312504a77.882816 77.882816 0 0 0 76.248911-76.248911v-844.184372a76.248911 76.248911 0 0 0-76.248911-76.248911zM89.875137-127.985567a86.32466 86.32466 0 0 0-43.570806 10.892701A88.230883 88.230883 0 0 0 0.010349-38.120779v844.184372A93.949551 93.949551 0 0 0 46.304331 885.035679a93.404916 93.404916 0 0 0 92.587963-2.723175L789.731213 460.220318a91.498693 91.498693 0 0 0 0-152.497822L138.892294-114.36969a93.949551 93.949551 0 0 0-49.017157-13.615877z m19.062228 898.647879V-2.719499l596.375411 386.690906z"  horiz-adv-x="1130" />

    
    <glyph glyph-name="houtui" unicode="&#58907;" d="M76.168354 881.295427a77.800533 77.800533 0 0 0 76.168353-76.168353v-843.292486a77.800533 77.800533 0 0 0-76.168353-76.168353 77.800533 77.800533 0 0 0-76.168354 76.168353v843.292486A77.800533 77.800533 0 0 0 76.168354 881.295427zM1036.433668-127.935257a110.716142 110.716142 0 0 0-48.965371 13.601492l-650.151303 421.646243a91.402024 91.402024 0 0 0 0 152.336707L987.468297 881.295427a87.049547 87.049547 0 0 0 92.490144 2.720299 88.137666 88.137666 0 0 0 46.245072-78.888652v-843.292486a93.850293 93.850293 0 0 0-46.245072-78.888652 79.704741 79.704741 0 0 0-43.524773-10.881193z m-614.787425 511.416088L1017.391579-1.713414V769.763195z"  horiz-adv-x="1126" />

    
    <glyph glyph-name="cihui1" unicode="&#58912;" d="M338.851469 635.547191c-36.615227 0-66.397947 27.213231-66.397947 60.616596V835.383405C272.27833 868.786769 302.06105 896 338.851469 896s66.281152-27.213231 66.281152-60.616595v-138.226861a56.587169 56.587169 0 0 0-16.409695-40.878243A70.076989 70.076989 0 0 0 338.851469 635.547191zM338.851469 860.961506c-16.99367 0-31.359453-11.679498-31.359452-25.578101v-139.219618c0-13.840205 14.365783-25.578101 31.359452-25.578101a34.396122 34.396122 0 0 1 24.877331 9.927573 21.723867 21.723867 0 0 1 6.540519 15.82572V835.383405C370.094127 849.282007 355.669947 860.961506 338.851469 860.961506zM695.076163 635.547191c-36.615227 0-66.397947 27.213231-66.397947 60.616596V835.383405C628.503023 868.786769 658.285743 896 695.076163 896s66.456344-27.213231 66.456344-60.616595v-138.226861a56.587169 56.587169 0 0 0-16.409695-40.878243A70.076989 70.076989 0 0 0 695.076163 635.547191zM695.076163 860.961506c-16.99367 0-31.359453-11.679498-31.359453-25.578101v-139.219618c0-13.840205 14.365783-25.578101 31.359453-25.578101a34.396122 34.396122 0 0 1 24.877331 9.927573 21.723867 21.723867 0 0 1 6.540519 15.82572V835.383405C726.31882 849.282007 711.89464 860.961506 695.076163 860.961506zM830.558341-128H193.441717A146.752894 146.752894 0 0 0 46.864016 18.577702V624.743656a146.460907 146.460907 0 0 0 145.993726 146.577701h96.939835v-35.038494H192.857742a111.305617 111.305617 0 0 1-110.955232-111.539207v-606.165954a111.656002 111.656002 0 0 1 111.539207-111.539208h637.116624a111.656002 111.656002 0 0 1 111.539207 111.539208V624.743656a112.41517 112.41517 0 0 1-111.539207 111.539207v35.038494a147.570459 147.570459 0 0 0 146.577702-146.402509v-606.341146a146.752894 146.752894 0 0 0-146.577702-146.577702z m0 864.282863h-91.100085v35.038494h91.100085z m-180.623439 0H379.32093v35.038494h270.613972zM259.664472 416.089421h502.21842a30.133105 30.133105 0 0 0 30.191503-30.191503 30.133105 30.133105 0 0 0-30.191503-30.133105h-502.21842a30.133105 30.133105 0 0 0-30.191503 30.133105 30.133105 30.133105 0 0 0 30.191503 30.191503zM259.664472 199.025948h502.21842a30.133105 30.133105 0 0 0 30.191503-30.133105 30.133105 30.133105 0 0 0-30.191503-30.191503h-502.21842a30.133105 30.133105 0 0 0-30.191503 30.191503 30.133105 30.133105 0 0 0 30.191503 30.133105z"  horiz-adv-x="1024" />

    
    <glyph glyph-name="youhua" unicode="&#59895;" d="M779.094898 420.656955c-0.640598 0.64743299-1.298773 1.260688-1.967689 1.862226-0.602513 0.664035-1.215768 1.32221-1.863202 1.962808l-457.001475 457.007725c-19.284336 19.287071-50.550391 19.284336-69.831798 0-19.28433601-19.28336-19.284336-50.547461 0-69.833751L674.341928 385.74164301l-429.438194-429.43878001c-19.28336-19.287266-19.28336-50.550391 0-69.837657 19.28726599-19.286289 50.550391-19.286289 69.834727 0L779.094898 350.824572C798.382165 370.10597800000005 798.382165 401.370666 779.094898 420.656955L779.094898 420.656955z"  horiz-adv-x="1024" />

    
    <glyph glyph-name="shouhui" unicode="&#59896;" d="M475.343045 651.0948980000001c-0.64743299-0.640598-1.260688-1.298773-1.862226-1.967689-0.664035-0.602513-1.32221-1.215768-1.962808-1.863202l-457.007725-457.001475c-19.287071-19.284336-19.284336-50.550391 0-69.831798 19.28336-19.28433601 50.547461-19.284336 69.833751 0L510.25835699 546.341928l429.43878001-429.438194c19.287266-19.28336 50.550391-19.28336 69.837657 0 19.286289 19.28726599 19.286289 50.550391 0 69.834727L545.175428 651.0948980000001C525.894022 670.382165 494.629334 670.382165 475.343045 651.0948980000001L475.343045 651.0948980000001z"  horiz-adv-x="1024" />

    
    <glyph glyph-name="zhankai" unicode="&#59897;" d="M548.656955 116.90510200000006c0.64743299 0.640598 1.260688 1.298773 1.862226 1.967689 0.664035 0.602513 1.32221 1.215768 1.962808 1.863202l457.007725 457.001475c19.287071 19.284336 19.284336 50.550391 0 69.831798-19.28336 19.28433601-50.547461 19.284336-69.833751 0L513.74164301 221.65807199999995l-429.43878001 429.438194c-19.287266 19.28336-50.550391 19.28336-69.837657 0-19.286289-19.28726599-19.286289-50.550391 0-69.834727L478.824572 116.90510200000006C498.105978 97.61783500000001 529.370666 97.61783500000001 548.656955 116.90510200000006L548.656955 116.90510200000006z"  horiz-adv-x="1024" />

    
    <glyph glyph-name="wangpanxiazai" unicode="&#58913;" d="M645.283404 222.665532a27.234043 27.234043 0 0 1-38.454468 0L539.234043 155.234043V425.504681a27.234043 27.234043 0 0 1-54.468086 0V155.234043l-67.594893 67.431489a27.234043 27.234043 0 0 1-38.454468-38.454468l112.966808-112.966809 1.034894-1.143829a27.234043 27.234043 0 0 1 19.281702-7.952341 27.234043 27.234043 0 0 1 19.281702 7.952341l1.034894 1.143829 112.966808 112.966809a27.234043 27.234043 0 0 1 0 38.454468zM802.968511 520.769362h-1.742979c-7.189787 0.708085-14.434043 1.089362-21.787234 1.089361-5.065532 0-10.022128 0-14.924255-0.490212h-0.272341a272.340426 272.340426 0 0 1-515.322553-0.544681 0.27234 0.27234 0 0 0-0.27234 0h-2.342128A210.137872 210.137872 0 0 1 179.363404 111.659574a21.787234 21.787234 0 0 1 2.451064-0.817021l3.159149-0.980425h146.682553v54.468085H193.742979a155.669787 155.669787 0 0 0 46.624681 302.08h3.485957a155.397447 155.397447 0 0 0 46.406809-7.026383h0.27234a217.87234 217.87234 0 0 0 420.221277 50.001702 215.965957 215.965957 0 0 0 11.492766-53.596596 0.326809 0.326809 0 0 1 0.381276 0 150.76766 150.76766 0 0 0 55.993192 11.547234 152.510638 152.510638 0 0 0 24.891914-303.114893h-111.114893v-54.468086h61.875745s18.954894-0.762553 27.942127-0.54468c119.285106 2.396596 205.562553 91.397447 205.562553 205.671489a206.978723 206.978723 0 0 1-184.810212 205.889362z"  horiz-adv-x="1024" />

    
    <glyph glyph-name="wenjianxiazai" unicode="&#58914;" d="M612.711489 524.745532a25.926809 25.926809 0 0 1-25.981276 25.981277H276.588936a25.981277 25.981277 0 0 1 0-51.962554h310.141277a25.926809 25.926809 0 0 1 25.981276 25.981277z m211.445107 125.766808H490.212766a0.871489 0.871489 0 0 0-0.490213 0L386.342128 733.249362H199.843404a51.962553 51.962553 0 0 1-51.962553-51.962553v-492.010213a51.962553 51.962553 0 0 1 51.962553-51.962553h227.948936l-34.750638 35.240851a27.234043 27.234043 0 0 0-7.843404 16.721702h-185.191489V681.450213h169.613617l89.817872-73.150639A52.61617 52.61617 0 0 1 490.212766 598.549787h334.107234v-409.109787a27.234043 27.234043 0 0 0-7.897872-17.538723l-33.933617-34.42383h41.831489a51.962553 51.962553 0 0 1 51.962553 51.962553V598.549787a51.962553 51.962553 0 0 1-52.125957 51.962553zM740.765957 217.491064a25.545532 25.545532 0 0 1-25.218723-7.135319L631.829787 125.222128v312.646808a26.035745 26.035745 0 1 1-52.071489 0v-312.646808L495.659574 210.355745a25.763404 25.763404 0 0 1-25.273191 7.135319A26.144681 26.144681 0 0 1 452.085106 198.808511a26.907234 26.907234 0 0 1 7.080851-25.708937l128.272341-130.723404a25.654468 25.654468 0 0 1 36.221276-0.544681l0.544681 0.544681 128.272341 130.723404a26.852766 26.852766 0 0 1 7.080851 25.708937 26.199149 26.199149 0 0 1-18.519149 18.900425z"  horiz-adv-x="1024" />

    
    <glyph glyph-name="weiwancheng" unicode="&#58898;" d="M512 384m-512 0a512 512 0 1 1 1024 0 512 512 0 1 1-1024 0ZM838.33333333 271.79999999999995c-7.3 12.3-16.7 24.7-28 35.7-11 10.7-23 20.3-36.4 28.3l22.3 22.3s32 0 48-16 16-48 16-48L838.33333333 271.79999999999995M640.53333333 71.29999999999995h-67v67l8 8c14.7-7 28-16.3 39.4-27.7 11.3-11.3 21-24.7 27.7-39.4l-8.1-7.9m179.1 182.1L667.93333333 99c-8.1 13.7-17.9 26.3-29.3 37.4-11.3 11.3-24.3 21.3-38 29.3L755.33333333 317.79999999999995c14-6.7 26.7-15.7 37.7-26.3 10.9-10.7 20.3-24.4 26.6-38.1M505.43333333 136.70000000000005c-0.3 8.3 49.7 61.4 108.4 120.7H352.03333333c-14 0-25.3 11.3-25.3 25.3s11.3 25.3 25.3 25.3h295.8c4.7 0 9-1.3 12.7-3.3 51.4 51.4 101.4 100 124.4 122.4V658.3c0 30.7-25 55.7-55.7 55.7H282.03333333c-30.7 0-55.7-25-55.7-55.7v-548.6c0-30.7 25-55.7 55.7-55.7h223.8c0 30.7 0 71-0.4 82.7M325.73333333 549.2c0 14 11.3 25.3 25.3 25.3h297.2c14 0 25.3-11.3 25.3-25.3s-11.3-25.3-25.3-25.3H351.03333333c-14 0-25.3 11.3-25.3 25.3m1-134.4c0 14 11.3 25.3 25.3 25.3h295.8c14 0 25.3-11.3 25.3-25.3s-11.3-25.3-25.3-25.3H352.43333333c-14 0-25.7 11.7-25.7 25.3"  horiz-adv-x="1024" />

    
    <glyph glyph-name="cha3" unicode="&#58923;" d="M512-64c-250.88 0-448 197.12-448 448s197.12 448 448 448 448-197.12 448-448-197.12-448-448-448z m224 672a43.328 43.328 0 0 1-62.72 0L512 446.72 350.72 608a43.328 43.328 0 0 1-62.72 0c-17.92-17.92-17.92-44.8 0-62.72L449.28 384 288 222.72c-17.92-17.92-17.92-44.8 0-62.72s44.8-17.92 62.72 0L512 321.28l161.28-161.28c17.92-17.92 44.8-17.92 62.72 0s17.92 44.8 0 62.72L574.72 384l161.28 161.28c17.92 17.92 17.92 44.8 0 62.72z"  horiz-adv-x="1024" />

    
    <glyph glyph-name="xiaobiaoqian" unicode="&#58915;" d="M84.217675 896v-1010.694504a9.125286 9.125286 0 0 1 12.996619-8.295714l411.743944 182.229187 414.785706-186.377044a9.125286 9.125286 0 0 1 12.996619 8.295714l2.212191 919.994696V896z"  horiz-adv-x="1024" />

    
    <glyph glyph-name="qiehuanzhanghao" unicode="&#58917;" d="M361.472 716.288c12.288 12.8 6.656 7.68 15.872 15.872 35.328 32.256 82.944 51.712 134.656 51.712 110.592 0 199.68-89.088 199.68-199.168 0-67.584-33.792-126.976-84.992-163.328v-0.512c-13.824-3.072-32.256-6.656-32.256-27.136 0-21.504 17.408-24.576 31.232-25.088 76.8-23.04 144.384-68.096 194.048-128.512 4.608-7.68 12.8-12.8 22.528-12.8 14.336 0 25.6 11.776 25.6 25.6 0 8.704-4.608 16.384-11.264 20.992-46.592 55.808-106.496 99.84-175.104 127.488 49.152 45.568 79.872 110.592 79.872 182.272 0 137.728-111.616 248.832-249.344 248.832-50.176 0-96.768-14.848-136.192-40.448-11.776-8.192-17.92-12.8-27.136-20.992-12.8-11.776-15.36-10.752-36.352-38.4-8.192-10.24-7.168-9.728-22.528-35.84-17.408-33.792-27.136-72.704-27.136-113.152 0-72.192 30.72-137.216 79.872-182.272-163.84-66.56-279.552-227.328-280.064-415.232h1.024c-1.024-2.56-1.536-5.632-1.536-8.192 0-13.824 11.264-25.088 25.088-25.088h516.096c13.824 0 25.088 11.264 25.088 25.088s-11.264 25.088-25.088 25.088H112.64c7.68 173.056 125.44 317.952 285.184 365.056h1.024c13.824 0 29.696 6.656 29.696 25.088 0 17.408-17.408 24.064-30.72 27.648v0.512C345.6 457.728 312.32 517.12 312.32 584.704c0 43.52 13.824 83.456 37.888 116.224M875.52 136.192h-156.16c-13.824 0-25.088-11.264-25.088-25.088s11.264-25.088 25.088-25.088h216.064c13.824 0 25.088 11.264 25.088 25.088 0 7.68-3.584 14.336-9.216 18.944l-57.856 57.856c-9.728 9.728-25.6 9.728-35.328 0-9.728-9.728-9.728-25.6 0-35.328l17.408-16.384zM709.12 43.008c3.072 1.536 6.656 2.048 10.24 2.048h216.064c13.824 0 25.088-11.264 25.088-25.088s-11.264-25.088-25.088-25.088h-164.352l18.432-18.432c9.728-9.728 9.728-25.6 0-35.328-9.728-9.728-25.6-9.728-35.328 0L695.296 0c-9.728 9.728-9.728 25.6 0 35.328 3.584 4.608 8.704 6.656 13.824 7.68z"  horiz-adv-x="1024" />

    
    <glyph glyph-name="exam" unicode="&#58896;" d="M700.8-51.200000000000045H140.8c-35.2 0-60.8 28.8-60.8 60.8V755.2c0 35.2 28.8 60.8 60.8 60.8h560c35.2 0 60.8-28.8 60.8-60.8v-121.6h-54.4V755.2c0 3.2-3.2 6.4-6.4 6.4H140.8c-3.2 0-6.4-3.2-6.4-6.4v-745.6c0-3.2 3.2-6.4 6.4-6.4h560c3.2 0 6.4 3.2 6.4 6.4v112h54.4v-112c0-32-28.8-60.8-60.8-60.8z m0 0M403.2 291.20000000000005H281.6c-12.8 0-25.6 12.8-25.6 28.8 0 12.8 12.8 28.8 28.8 28.8h118.4c16 0 28.8-12.8 28.8-28.8-3.2-16-12.8-28.8-28.8-28.8z m76.8-243.2c-6.4 0-12.8 3.2-16 6.4-9.6 6.4-12.8 16-9.6 28.8l41.6 182.4c0 3.2 3.2 9.6 6.4 12.8l275.2 336c3.2 6.4 9.6 9.6 16 9.6 76.8 9.6 140.8-41.6 150.4-112 0-6.4 0-12.8-6.4-19.2L672 137.60000000000002c-3.2-3.2-6.4-6.4-12.8-9.6l-169.6-73.6c-3.2-3.2-6.4-6.4-9.6-6.4z m67.2 195.2l-28.8-121.6 112 48 256 336c-9.6 35.2-41.6 57.6-80 57.6l-259.2-320z m0 0M851.2 390.4c-12.8 0-25.6 9.6-28.8 22.4-3.2 19.2-12.8 41.6-32 51.2-16 12.8-38.4 16-57.6 16-16 0-28.8 9.6-32 22.4 0 16 9.6 28.8 22.4 32 35.2 3.2 70.4-3.2 99.2-25.6 28.8-19.2 48-54.4 51.2-89.6 0-16-9.6-28.8-22.4-28.8 3.2 0 3.2 0 0 0z m-214.4-249.6c-12.8 0-25.6 9.6-28.8 22.4-3.2 16-12.8 32-25.6 44.8-12.8 12.8-32 16-48 12.8-16 0-28.8 9.6-32 22.4 0 16 9.6 28.8 22.4 32 32 3.2 64-3.2 89.6-22.4 25.6-19.2 41.6-48 48-80 0-16-9.6-28.8-22.4-32h-3.2zM544 438.4H281.6c-16 0-28.8 12.8-28.8 28.8 0 12.8 12.8 28.8 28.8 28.8H544c16 0 28.8-12.8 28.8-28.8 0-19.2-12.8-28.8-28.8-28.8z m0 140.8H281.6c-12.8 0-25.6 12.8-25.6 28.8 0 12.8 12.8 28.8 28.8 28.8H544c16 0 28.8-12.8 28.8-28.8s-12.8-28.8-28.8-28.8z m0 0"  horiz-adv-x="1024" />

    
    <glyph glyph-name="tingli" unicode="&#60111;" d="M480.774699 273.130155a42.818886 42.818886 0 0 1-44.800587-44.800586v-186.846048a44.871362 44.871362 0 1 1 89.671948 0v186.846048A44.942137 44.942137 0 0 1 480.774699 273.130155zM916.748811 273.130155a42.818886 42.818886 0 0 1-44.800586-44.800586v-186.846048a44.871362 44.871362 0 1 1 89.671948 0v186.846048a44.942137 44.942137 0 0 1-44.871362 44.800586zM698.761755 210.848139a42.818886 42.818886 0 0 1-44.800586-44.800586v-62.282016a44.871362 44.871362 0 1 1 89.671948 0v62.282016a44.871362 44.871362 0 0 1-44.871362 44.800586zM1148.466221 397.340312v48.976313A443.122389 443.122389 0 0 1 698.761755 895.950316C446.66114 895.950316 249.128064 698.41724 249.128064 446.316625v-48.976313a262.858418 262.858418 0 0 1 13.659579-525.292185h31.141008a42.889661 42.889661 0 0 1 44.871361 44.871362v529.397136c0 205.247553 154.784965 359.961743 359.961743 359.961743s360.032518-154.784965 360.032518-359.961743v-529.397136a42.889661 42.889661 0 0 1 44.800586-44.871362h31.141008a262.858418 262.858418 0 0 1 13.730354 525.292185z"  horiz-adv-x="1397" />

    
    <glyph glyph-name="-" unicode="&#58927;" d="M903.2-95.5H117.8c-35.2 0-63.8 28.6-63.8 63.8V489.9c0 13.3 10.7 24 24 24s24-10.7 24-24v-521.6c0-8.7 7.1-15.8 15.8-15.8h785.4c8.7 0 15.8 7.1 15.8 15.8V799.6c0 8.7-7.1 15.8-15.8 15.8h-664c-8.7 0-15.8-7.1-15.8-15.8v-729.4c0-13.3-10.7-24-24-24s-24 10.7-24 24V799.6c0 35.2 28.6 63.8 63.8 63.8h663.9c35.2 0 63.8-28.6 63.8-63.8v-831.3c0.1-35.2-28.5-63.8-63.7-63.8zM102 367.1H54V609.3c0 35.2 28.6 63.8 63.8 63.8h87v-48h-87c-8.7 0-15.8-7.1-15.8-15.8v-242.2zM335.3 565.9H807.6c15.7 0 30.7 13.8 30 30-0.7 16.3-13.2 30-30 30H335.3c-15.7 0-30.7-13.8-30-30 0.8-16.3 13.2-30 30-30zM335.3 387.1H807.6c15.7 0 30.7 13.8 30 30-0.7 16.3-13.2 30-30 30H335.3c-15.7 0-30.7-13.8-30-30 0.8-16.3 13.2-30 30-30zM335.3 208.20000000000005H807.6c15.7 0 30.7 13.8 30 30-0.7 16.3-13.2 30-30 30H335.3c-15.7 0-30.7-13.8-30-30 0.8-16.2 13.2-30 30-30z"  horiz-adv-x="1024" />

    
    <glyph glyph-name="jianhao" unicode="&#58880;" d="M513 835.3c-248.2 0-449.5-201.2-449.5-449.5 0-248.2 201.2-449.5 449.5-449.5 248.2 0 449.5 201.2 449.5 449.5S761.2 835.3 513 835.3z m262.5-486.9H250.8c-20.6 0-37.5 16.9-37.5 37.5s16.9 37.5 37.5 37.5h524.7c20.6 0 37.5-16.9 37.5-37.5s-16.9-37.5-37.5-37.5z"  horiz-adv-x="1024" />

    
    <glyph glyph-name="tiku" unicode="&#58926;" d="M423.8 405.2l-23 22.2 13.9 13.4 9 8.8c3.8 3.5 5.9 8.4 5.9 13.5s-2.1 10-5.9 13.5c-8 7.4-20.7 7.4-28.7 0l-22.6-21.8-13.4 13-9.1 8.8c-8 7.4-20.7 7.4-28.7 0-7.8-7.5-7.8-19.6 0-27l22.9-22.1-14-13.5-9-8.8c-3.8-3.5-5.9-8.4-5.9-13.5s2.1-10 5.9-13.5c8.1-7.3 20.7-7.3 28.7 0l22.7 21.9L386 387l9.1-8.8c8-7.4 20.7-7.4 28.7 0 7.8 7.5 7.8 19.6 0 27zM532.1 615.3h174.3c10.9 0 19.8 8.4 19.8 19 0 10.4-8.9 19-19.8 19H532.1c-10.9 0-19.8-8.5-19.8-19 0-10.4 8.9-19 19.8-19zM533.6 433h109.5c7.4-0.5 14.5 3 18.4 9.1 3.9 6 3.9 13.7 0 19.8s-11 9.6-18.4 9.1H533.6c-7.4 0.5-14.5-3-18.4-9.1-3.9-6-3.9-13.7 0-19.8 3.9-6.2 11-9.6 18.4-9.1zM747.5 223.6H533.6c-7.4 0.5-14.5-3-18.4-9.1-3.9-6-3.9-13.7 0-19.8 3.9-6.1 11-9.6 18.4-9.1h213.9c7.4-0.5 14.5 3 18.4 9.1 3.9 6 3.9 13.7 0 19.8s-11 9.6-18.4 9.1zM779.4 0.4H250.9c-42.4 0-76.8 33-76.8 73.6V714.4c0 40.6 34.5 73.6 76.8 73.6h528.4c42.4 0 76.8-33 76.8-73.6V74c0.1-40.6-34.4-73.6-76.7-73.6zM250.9 749.7c-20.3 0-36.8-15.8-36.8-35.3V74c0-19.5 16.5-35.3 36.8-35.3h528.4c20.3 0 36.8 15.8 36.8 35.3V714.4c0 19.5-16.5 35.3-36.8 35.3H250.9zM442.4 657.1l-10.1-10.4c-23.6-24.3-47.2-48.4-70.9-72.6-4.6-4.6-11.3-6.9-18-5.9-6.6 0.9-12.4 4.8-15.6 10.4l-28.6 43.2c-5.9 10.4-2.5 23.3 7.7 29.7 4.9 2.8 10.8 3.5 16.3 2.1s10.2-5.1 12.9-9.9l13.3-20.1 62.8 64.3c3.9 3.9 9.4 6.2 15.1 6.2s11.2-2.3 15.1-6.2c8.2-8.6 8.2-22 0-30.8zM442.4 248.7l-10.1-10.4c-23.6-24.3-47.2-48.4-70.9-72.6-4.6-4.6-11.3-6.9-18-5.9-6.6 0.9-12.4 4.8-15.6 10.4l-28.6 43.2c-5.9 10.4-2.5 23.3 7.7 29.7 4.9 2.8 10.8 3.5 16.3 2.1s10.2-5.1 12.9-9.9l13.3-20.1 62.8 64.3c3.9 3.9 9.4 6.2 15.1 6.2s11.2-2.3 15.1-6.2c8.2-8.7 8.2-22 0-30.8z"  horiz-adv-x="1024" />

    
    <glyph glyph-name="zhibo11" unicode="&#59074;" d="M489.6 294.4H220.8c-12.4 0-22.4-10-22.4-22.4 0-12.4 10-22.4 22.4-22.4h268.8c12.4 0 22.4 10 22.4 22.4 0 12.4-10 22.4-22.4 22.4zM892.6 602.2c9.4 0 22.6-7 22.6-22.5v-257.1c0-15.5-13.2-22.5-22.6-22.5-4.4 0-8.7 1.4-12.6 4.2l-73.5 51.4-25.7 18v155l25.7 18 73.5 51.4c3.9 2.7 8.1 4.1 12.6 4.1M646.4 764.8h-448C124.5 764.8 64 704.3 64 630.4V272c0-73.9 60.5-134.4 134.4-134.4h16.4l-58.2-100.8c-6.2-10.7-2.5-24.4 8.2-30.6 3.5-2 7.3-3 11.1-3 7.8 0 15.3 4 19.5 11.2l71.1 123.2h311.8l71.1-123.2c4.1-7.2 11.7-11.2 19.5-11.2 3.8 0 7.6 1 11.1 3 10.7 6.2 14.4 19.9 8.2 30.6L630 137.6h16.4c73.9 0 134.4 60.5 134.4 134.4v47l73.5-51.4c12.1-8.4 25.4-12.3 38.3-12.3 34.9 0 67.4 27.7 67.4 67.3V579.7c0 39.6-32.5 67.3-67.4 67.3-13 0-26.2-3.8-38.3-12.3l-73.5-51.4v47c0 74-60.5 134.5-134.4 134.5z m-448-582.4c-49.4 0-89.6 40.2-89.6 89.6V630.4c0 49.4 40.2 89.6 89.6 89.6h448c49.4 0 89.6-40.2 89.6-89.6V272c0-49.4-40.2-89.6-89.6-89.6h-448z"  horiz-adv-x="1024" />

    
    <glyph glyph-name="xinxi" unicode="&#59054;" d="M754.7904 734.47936H119.40352C53.49888 734.47936 0 680.98048 0 615.0656v-416.72192c0-66.0224 53.49888-119.52128 119.40352-119.52128h99.14368v-163.34336c0-22.76352 25.94816-35.74272 44.16-22.08768l247.2448 185.43616h244.8384c66.0224 0 119.41376 53.49888 119.41376 119.41376V615.0656c0 65.91488-53.49888 119.41376-119.41376 119.41376zM220.48768 348.83072c-30.16704 0-54.63552 24.4736-54.63552 54.64064s24.4736 54.63552 54.63552 54.63552 54.63552-24.4736 54.63552-54.63552-24.46848-54.64064-54.63552-54.64064z m218.55232 0c-30.16704 0-54.63552 24.4736-54.63552 54.64064s24.4736 54.63552 54.63552 54.63552 54.63552-24.4736 54.63552-54.63552-24.46848-54.64064-54.63552-54.64064z m218.55232 0c-30.16704 0-54.63552 24.4736-54.63552 54.64064s24.46848 54.63552 54.63552 54.63552 54.64064-24.4736 54.64064-54.63552-24.47872-54.64064-54.64064-54.64064zM787.1232 770.90304c68.18816 0 123.50464-55.31648 123.50464-123.50464v-422.41024c61.2352 5.12 109.27616 56.3456 109.27616 118.94784V720.14336c0 88.32-71.71584 160.03584-160.03584 160.03584H265.10336c-62.4896 0-113.71008-48.04096-118.94784-109.27616h640.96768z"  horiz-adv-x="1024" />

    
    <glyph glyph-name="wode11" unicode="&#58988;" d="M682.9 568c0 37.8-12.3 72.7-33.1 101 6.5-38.2-22.6-103.5-78.3-159.3-56.1-56.1-124.5-82.5-161.4-76.7 28.6-21.9 64.3-34.9 103-34.9 93.6 0 169.8 76.2 169.8 169.9zM513.1 339.2c126.2 0 228.8 102.6 228.8 228.8 0 117.9-88.3 215.7-205.5 227.6-16.2 1.6-30.7-10.1-32.3-26.3-1.6-16.2 10.1-30.7 26.3-32.3 49.4-5 91.9-30.7 119.3-68 20.9-28.3 33.1-63.3 33.1-101 0-93.7-76.2-169.9-169.9-169.9-38.7 0-74.4 13-103 34.9-40.6 31.1-66.9 80-66.9 135 0 31.4 8.6 62.1 24.9 88.7 8.5 13.9 4.2 32-9.7 40.5-13.9 8.5-32 4.1-40.5-9.7-22-35.9-33.6-77.2-33.6-119.5 0.2-126.2 102.8-228.8 229-228.8zM419.5 714.5c4.7 0 9.4 1.1 13.8 3.5 3.2 1.7 6.4 3.3 9.6 4.7 14.8 6.7 21.4 24.2 14.7 39-6.7 14.8-24.2 21.4-39 14.7-4.4-2-8.7-4.1-13-6.4-14.4-7.6-19.8-25.5-12.2-39.9 5.4-9.9 15.6-15.6 26.1-15.6zM958.2 10.6C887.9 188.2 709 307.4 513.1 307.4c-196.1 0-375-119.4-445.2-297.1-6-15.1 1.4-32.3 16.6-38.2 3.6-1.4 7.2-2.1 10.8-2.1 11.7 0 22.8 7.1 27.4 18.7C184 144.1 340.9 248.5 513.1 248.5c172 0 328.9-104.3 390.3-259.6 6-15.1 23.2-22.5 38.3-16.6 15.1 6.1 22.5 23.2 16.5 38.3z"  horiz-adv-x="1024" />

    
    <glyph glyph-name="shouye" unicode="&#58989;" d="M254.1 8.6h112v76.1c-0.8-0.3-1.6-0.5-2.4-0.5H260.9c-17.4 0-32.4 10.1-39.7 24.7v-55.3c0-24.4 15.1-45 32.9-45zM782 8.6c17.8 0 32.9 20.6 32.9 45v54.2c-7.5-14-22.1-23.6-39.1-23.6H673.1c-0.8 0-1.6 0.2-2.3 0.5v-76.1H782zM947.5 520.5L574.9 798.9c-33.9 25.8-81.5 26.2-116.1 0.9L429.7 778c-12.9-9.7-15.6-28-5.9-40.9 9.7-12.9 27.9-15.5 40.9-5.9l28.9 21.6c13.4 9.8 32.8 9.7 46.2-0.6l372.8-278.6c5.2-3.9 11.4-5.8 17.5-5.8 8.9 0 17.7 4 23.4 11.7 9.5 13.1 6.9 31.4-6 41zM377.1 673c6.1 0 12.2 1.9 17.5 5.8l5.3 3.9c12.9 9.7 15.6 28 5.9 40.9-9.7 12.9-28 15.5-40.9 5.9l-5.3-3.9c-12.9-9.7-15.6-28-5.9-40.9 5.8-7.6 14.5-11.7 23.4-11.7zM336.3 671.7c-9.7 12.9-28 15.5-40.9 5.9L75.7 513.2c-12.9-9.7-15.6-28-5.9-40.9 5.7-7.7 14.5-11.7 23.4-11.7 6.1 0 12.2 1.9 17.5 5.8l219.8 164.4c12.8 9.7 15.5 28 5.8 40.9zM844.1 449.7c-16.1 0-29.2-13.1-29.2-29.2v-367c0-24.4-15.1-45-32.9-45H670.8V284.4c0 16.1-13.1 29.2-29.2 29.2H395.3c-16.1 0-29.2-13.1-29.2-29.2V8.6h-112c-17.8 0-32.9 20.6-32.9 45V420.2c0 16.1-13.1 29.2-29.2 29.2s-29.2-13.1-29.2-29.2v-366.6c0-57 40.9-103.4 91.3-103.4h528c50.3 0 91.3 46.4 91.3 103.4V420.5c-0.1 16.1-13.2 29.2-29.3 29.2zM612.4 255.2v-246.7H424.5V255.2h187.9z"  horiz-adv-x="1024" />

    
    <glyph glyph-name="ziliao" unicode="&#58990;" d="M285 190.5h520.6V256H260.2c-18.1 0-33.8-9.9-42.1-24.6v-60.2c19.4 12.1 42.3 19.3 66.9 19.3zM371.5 770h0.9c16.6 0 30.1 13.5 30.1 30.1S389 830.2 372.4 830.2h-0.9c-16.6 0-30.1-13.5-30.1-30.1s13.5-30.1 30.1-30.1zM303.8 629.5c0-16.6 13.5-30.1 30.1-30.1h351.7c16.6 0 30.1 13.5 30.1 30.1s-13.5 30.1-30.1 30.1H333.9c-16.6-0.1-30.1-13.5-30.1-30.1zM685.6 512.8H333.9c-16.6 0-30.1-13.5-30.1-30.1s13.5-30.1 30.1-30.1h351.7c16.6 0 30.1 13.5 30.1 30.1s-13.5 30.1-30.1 30.1zM685.6 371.8H333.9c-16.6 0-30.1-13.5-30.1-30.1s13.5-30.1 30.1-30.1h351.7c16.6 0 30.1 13.5 30.1 30.1s-13.5 30.1-30.1 30.1zM285 130.3h550.7c16.6 0 30.1 13.5 30.1 30.1V736.1c0 51.9-42.2 94.1-94.1 94.1H459.9c-16.6 0-30.1-13.5-30.1-30.1s13.5-30.1 30.1-30.1h311.7c18.7 0 33.9-15.2 33.9-33.9v-545.6H285c-24.6 0-47.4-7.1-66.9-19.2V736.1c0 18.7 15.2 33.9 33.9 33.9h35.9c16.6 0 30.1 13.5 30.1 30.1s-13.5 30.1-30.1 30.1H252c-51.9 0-94.1-42.2-94.1-94.1v-672.7c0-70.1 57-127.1 127.1-127.1h550.7c16.6 0 30.1 13.5 30.1 30.1s-13.5 30.1-30.1 30.1H285c-36.9 0-66.9 30-66.9 66.9s30 66.9 66.9 66.9z"  horiz-adv-x="1024" />

    
    <glyph glyph-name="dibudaohanglan-" unicode="&#58928;" d="M281.6-60.50909100000001c-13.963636 0-27.927273 4.654545-41.890909 13.963636-23.272727 18.618182-32.581818 46.545455-25.6 74.472728l16.290909 58.181818H100.072727c-55.854545 0-100.072727 44.218182-100.072727 100.072727V726.109091C0 781.963636 44.218182 826.181818 100.072727 826.181818h823.854546C979.781818 826.181818 1024 781.963636 1024 726.109091v-539.927273c0-55.854545-44.218182-100.072727-100.072727-100.072727H530.618182l-209.454546-134.981818c-11.636364-6.981818-25.6-11.636364-39.563636-11.636364zM100.072727 781.963636C69.818182 781.963636 46.545455 756.363636 46.545455 726.109091v-539.927273c0-30.254545 23.272727-53.527273 53.527272-53.527273h195.490909l-34.909091-116.363636c-4.654545-13.963636 4.654545-23.272727 6.981819-23.272727 2.327273-2.327273 13.963636-9.309091 25.6 0l221.090909 141.963636h407.272727c30.254545 0 53.527273 23.272727 53.527273 53.527273V726.109091c0 30.254545-23.272727 53.527273-53.527273 53.527273H100.072727zM833.163636 607.418182H190.836364c-13.963636 0-23.272727 9.309091-23.272728 23.272727s9.309091 23.272727 23.272728 23.272727h642.327272c13.963636 0 23.272727-9.309091 23.272728-23.272727s-9.309091-23.272727-23.272728-23.272727zM653.963636 453.818182H190.836364c-13.963636 0-23.272727 9.309091-23.272728 23.272727s9.309091 23.272727 23.272728 23.272727h463.127272c13.963636 0 23.272727-9.309091 23.272728-23.272727s-11.636364-23.272727-23.272728-23.272727zM525.963636 297.89090899999997H190.836364c-13.963636 0-23.272727 9.309091-23.272728 23.272727s9.309091 23.272727 23.272728 23.272728h335.127272c13.963636 0 23.272727-9.309091 23.272728-23.272728s-11.636364-23.272727-23.272728-23.272727z"  horiz-adv-x="1024" />

    
    <glyph glyph-name="timu" unicode="&#58924;" d="M990.977376 564.451148h-144.207325V862.849381a32.851965 32.851965 0 0 1-32.851964 33.150619h-244.469814a32.851965 32.851965 0 0 1-32.851965-33.150619v-298.312903H255.989334V803.715845a32.851965 32.851965 0 0 1-32.851965 33.150619h-7.338361C98.641223 836.866464 0 741.211783 0 619.616849v-552.339652c0-3.626516 0-7.381026 3.626516-11.007542C18.217908-46.766051 109.6061-128 215.799008-128H991.105371a32.851965 32.851965 0 0 1 32.809299 33.150619V531.343194a32.851965 32.851965 0 0 1-32.979959 33.150619z m-388.762468 264.223657h178.893879v-95.142702h-178.893879v95.142702z m0-160.846631h178.893879v-449.6026h-178.893879V667.870839z m142.927378-516.245157l-51.197867-62.504062-51.197867 62.546727h102.395734zM65.149285 619.318195c0 73.682263 54.824382 136.22899 124.197492 147.193867v-463.895338a244.0005 244.0005 0 0 1-124.197492-58.877546V619.27553zM957.314779-61.869422H215.11637c-84.007166 0-149.796425 66.301237-149.796425 150.948377 0 81.063289 65.789259 147.193867 142.586059 150.991042h11.007541c21.972418 0 36.56381 14.762052 36.56381 33.150619V497.680597h281.460273v-320.285322c0-7.381026 3.583851-11.007541 7.381025-14.762051l120.613641-150.991042a33.065289 33.065289 0 0 1 25.598934-11.007542 33.065289 33.065289 0 0 1 25.598933 11.007542l124.197492 150.991042c3.626516 3.583851 7.381026 10.964876 7.381026 14.762051V497.680597h109.648764V-61.869422z"  horiz-adv-x="1024" />

    
    <glyph glyph-name="qiqiu" unicode="&#58922;" d="M823.22944 101.632L839.68 35.84a14.94016 14.94016 0 0 0-15.36-15.36h-50.02752a205.04064 205.04064 0 0 1 14.18752-25.6c8.96-16.31744 0-46.08 0-46.08-8.32-25.27744-46.08-71.68-46.08-71.68-17.60256-11.19744-35.84 0-35.84 0-12.48256 12.8 0 30.72 0 30.72l35.84 51.2c13.11744 15.04256 5.12 25.6 5.12 25.6-11.84256 6.08256-30.72 35.84-30.72 35.84h-56.32s-17.60256 0.32256-10.24 25.6l11.53024 53.8112c-69.16096 23.13216-127.57504 76.09344-164.352 146.3552a287.87712 287.87712 0 0 0-111.21152-65.69984L404.48 107.52a14.94016 14.94016 0 0 0-15.36-15.36h-46.08c-15.67744-29.44-5.12-46.08-5.12-46.08 30.72-28.16 25.6-56.32 25.6-56.32-0.64-27.19744-25.6-71.68-25.6-71.68-20.15744-32.95744-40.96-46.08-40.96-46.08-44.16 0-30.72 30.72-30.72 30.72 27.84256 28.48256 51.2 81.92 51.2 81.92 5.12 16.64-20.48 40.96-20.48 40.96-13.75744 21.76-5.12 66.56-5.12 66.56H225.28s-17.59744 0.32256-10.24 25.6l13.7728 64.27648C99.87072 224.35328 5.12 365.17376 5.12 532.48 5.12 733.24544 141.51168 896 309.76 896c118.8608 0 221.74208-81.28 271.9488-199.74656A254.53056 254.53056 0 0 0 739.84 752.64c156.93824 0 284.16-148.992 284.16-332.8 0-149.8112-84.5312-276.48-200.77056-318.208zM788.48 61.44l-8.704 28.94336a236.2112 236.2112 0 0 0-72.77056-1.024L701.44 61.44h87.04z m-435.2 71.68l-11.37664 37.92896a249.00096 249.00096 0 0 0-67.97824 0.512L266.24 133.12h87.04zM309.76 846.3872C164.47488 846.3872 46.6944 705.84832 46.6944 532.48s117.76-313.9072 263.0656-313.9072 263.0656 140.53888 263.0656 313.9072S455.04512 846.3872 309.76 846.3872z m430.08-155.1872a211.01568 211.01568 0 0 1-138.51648-53.248A428.81024 428.81024 0 0 0 614.4 532.48c0-93.73184-29.74208-179.15904-78.56128-243.62496C575.5136 205.17888 651.97056 148.48 739.84 148.48c128.66048 0 232.96 121.49248 232.96 271.36s-104.29952 271.36-232.96 271.36z m161.28-409.6a205.71648 205.71648 0 0 0-92.16-92.16c-39.68 5.54496-20.48 40.96-20.48 40.96 44.8 26.88 76.8 87.04 76.8 87.04 15.36 22.61504 30.72 10.24 30.72 10.24 21.33504-9.81504 5.12-46.08 5.12-46.08zM281.6 747.52a221.92128 221.92128 0 0 1-128-184.32c0-11.52-15.36-15.36-15.36-15.36-14.93504-0.85504-20.48 15.36-20.48 15.36-11.94496 30.29504 5.12 76.8 5.12 76.8a288.28672 288.28672 0 0 0 148.48 153.6c22.18496 5.12 25.6-10.24 25.6-10.24 7.25504-23.04-15.36-35.84-15.36-35.84z"  horiz-adv-x="1024" />

    
    </font>
</defs>
</svg>
